<?xml version="1.0" encoding="UTF-8"?>
<svg width="61px" height="64px" viewBox="0 0 61 64" version="1.1" xmlns="http://www.w3.org/2000/svg" xmlns:xlink="http://www.w3.org/1999/xlink">
    <!-- Generator: Sketch 55.1 (78136) - https://sketchapp.com -->
    <title>Confetti</title>
    <desc>Created with Sketch.</desc>
    <g id="Mockups" stroke="none" stroke-width="1" fill="none" fill-rule="evenodd">
        <g id="SGOvercast-Overview" transform="translate(-1319.000000, -4300.000000)" fill="#FCB736">
            <path d="M1351.40017,4301.42284 C1352.58326,4302.65329 1352.58326,4304.64849 1351.40017,4305.87894 C1350.21708,4307.10939 1348.29987,4307.10939 1347.11678,4305.87894 C1345.93369,4304.64849 1345.93369,4302.65329 1347.11678,4301.42284 C1348.29987,4300.19239 1350.21708,4300.19239 1351.40017,4301.42284 Z M1341.2157,4302.50488 C1342.73227,4303.24143 1343.38745,4305.1153 1342.68043,4306.69136 C1341.9734,4308.26864 1340.17166,4308.95127 1338.65509,4308.21594 C1337.1397,4307.48061 1336.48334,4305.60552 1337.19037,4304.02946 C1337.8974,4302.45218 1339.69913,4301.76955 1341.2157,4302.50488 Z M1332.00092,4307.14493 C1333.66714,4307.2969 1334.89972,4308.82393 1334.75478,4310.55809 C1334.60867,4312.29101 1333.13923,4313.57294 1331.47301,4313.42097 C1329.80678,4313.27023 1328.5742,4311.74197 1328.71914,4310.00904 C1328.86526,4308.27611 1330.3347,4306.99296 1332.00092,4307.14493 Z M1324.86797,4314.78305 C1326.48353,4314.33205 1328.14504,4315.32964 1328.5775,4317.00987 C1329.01114,4318.6901 1328.05194,4320.41813 1326.43639,4320.86913 C1324.81966,4321.3189 1323.15933,4320.32253 1322.72568,4318.63985 C1322.29322,4316.95962 1323.25242,4315.23282 1324.86797,4314.78305 Z M1320.67661,4324.49651 C1322.04706,4323.49891 1323.93599,4323.84574 1324.89519,4325.27106 C1325.85557,4326.69515 1325.52209,4328.6597 1324.15164,4329.65853 C1322.78119,4330.6549 1320.89225,4330.30929 1319.93305,4328.88398 C1318.97267,4327.45866 1319.30615,4325.49411 1320.67661,4324.49651 Z M1319.93293,4335.1159 C1320.89213,4333.69058 1322.78107,4333.34498 1324.15152,4334.34258 C1325.52197,4335.3414 1325.85545,4337.30473 1324.89507,4338.73005 C1323.93588,4340.15536 1322.04694,4340.50219 1320.67649,4339.50337 C1319.30604,4338.50577 1318.97373,4336.54121 1319.93293,4335.1159 Z M1322.72616,4345.35953 C1323.15862,4343.67931 1324.82013,4342.68048 1326.43568,4343.13271 C1328.05242,4343.58249 1329.01044,4345.30929 1328.57797,4346.99074 C1328.14433,4348.67097 1326.484,4349.66857 1324.86844,4349.21757 C1323.25171,4348.76779 1322.29369,4347.03976 1322.72616,4345.35953 Z M1328.71961,4353.99108 C1328.57349,4352.25815 1329.80608,4350.73112 1331.47348,4350.57915 C1333.1397,4350.42718 1334.60914,4351.70911 1334.75408,4353.44326 C1334.9002,4355.17619 1333.66761,4356.70445 1332.00139,4356.85519 C1330.33399,4357.00716 1328.86573,4355.72523 1328.71961,4353.99108 Z M1337.19002,4359.97164 C1336.48299,4358.39436 1337.13935,4356.52049 1338.65474,4355.78516 C1340.17131,4355.04861 1341.97422,4355.73124 1342.68007,4357.30852 C1343.38828,4358.88458 1342.73192,4360.7609 1341.21535,4361.495 C1339.69878,4362.23033 1337.89704,4361.5477 1337.19002,4359.97164 Z M1347.11642,4362.57716 C1345.93333,4361.34671 1345.93333,4359.35274 1347.11642,4358.12229 C1348.29951,4356.89184 1350.21673,4356.89184 1351.39982,4358.12229 C1352.58291,4359.35274 1352.58291,4361.34671 1351.39982,4362.57716 C1350.21673,4363.80761 1348.29951,4363.80761 1347.11642,4362.57716 Z M1357.30101,4361.49512 C1355.78444,4360.75979 1355.12926,4358.8847 1355.83629,4357.30864 C1356.54331,4355.73136 1358.34505,4355.04873 1359.86162,4355.78529 C1361.37701,4356.51939 1362.03337,4358.39448 1361.32634,4359.97176 C1360.61932,4361.54782 1358.81758,4362.23045 1357.30101,4361.49512 Z M1366.51568,4356.85507 C1364.84945,4356.70433 1363.61569,4355.17607 1363.76181,4353.44314 C1363.90793,4351.70899 1365.37737,4350.42706 1367.04359,4350.57903 C1368.70981,4350.731 1369.94239,4352.25803 1369.79745,4353.99096 C1369.65134,4355.72511 1368.1819,4357.00704 1366.51568,4356.85507 Z M1373.64862,4349.21818 C1372.03307,4349.66795 1370.37156,4348.67158 1369.9391,4346.99135 C1369.50545,4345.3099 1370.46465,4343.58187 1372.08021,4343.1321 C1373.69694,4342.6811 1375.35727,4343.67869 1375.79091,4345.36015 C1376.22338,4347.04038 1375.26418,4348.7684 1373.64862,4349.21818 Z M1377.83964,4339.50349 C1376.46919,4340.50109 1374.58025,4340.15548 1373.62105,4338.73017 C1372.66185,4337.30485 1372.99415,4335.34152 1374.36461,4334.3427 C1375.73506,4333.3451 1377.62399,4333.69071 1378.58319,4335.11602 C1379.54357,4336.54134 1379.21009,4338.50589 1377.83964,4339.50349 Z M1378.58366,4328.8841 C1377.62447,4330.30942 1375.73553,4330.65502 1374.36508,4329.65865 C1372.99463,4328.65983 1372.66114,4326.69527 1373.62152,4325.27118 C1374.58072,4323.84587 1376.46966,4323.49781 1377.84011,4324.49663 C1379.21056,4325.49423 1379.54286,4327.45879 1378.58366,4328.8841 Z M1375.79044,4318.64047 C1375.35798,4320.32192 1373.69647,4321.31952 1372.08091,4320.86852 C1370.46418,4320.41751 1369.50616,4318.69071 1369.93862,4317.01048 C1370.37227,4315.33026 1372.0326,4314.33143 1373.64815,4314.78366 C1375.26488,4315.23344 1376.2229,4316.96024 1375.79044,4318.64047 Z M1369.7971,4310.00892 C1369.94322,4311.74185 1368.71064,4313.27011 1367.04324,4313.42085 C1365.37701,4313.57282 1363.90758,4312.29089 1363.76146,4310.55796 C1363.61652,4308.82381 1364.8491,4307.29678 1366.51532,4307.14481 C1368.18155,4306.99284 1369.65098,4308.27599 1369.7971,4310.00892 Z M1361.32634,4304.02958 C1362.03337,4305.60564 1361.37701,4307.47951 1359.86162,4308.21606 C1358.34505,4308.95139 1356.54331,4308.26876 1355.83629,4306.69148 C1355.12926,4305.11542 1355.78444,4303.24033 1357.30101,4302.505 C1358.81758,4301.76967 1360.61932,4302.4523 1361.32634,4304.02958 Z" id="Confetti"></path>
        </g>
    </g>
</svg>