<?xml version="1.0" encoding="UTF-8"?>
<svg width="47px" height="47px" viewBox="0 0 47 47" version="1.1" xmlns="http://www.w3.org/2000/svg" xmlns:xlink="http://www.w3.org/1999/xlink">
    <!-- Generator: Sketch 55.1 (78136) - https://sketchapp.com -->
    <title>Confetti</title>
    <desc>Created with Sketch.</desc>
    <g id="Mockups" stroke="none" stroke-width="1" fill="none" fill-rule="evenodd">
        <g id="SGOvercast-Overview" transform="translate(-416.000000, -3948.000000)" fill="#E4F2FF">
            <path d="M421.663818,3963.17518 C423.050411,3964.43257 423.155692,3966.57527 421.899503,3967.96186 C420.642118,3969.34845 418.499419,3969.45373 417.112827,3968.19635 C415.726234,3966.94016 415.620953,3964.79746 416.878338,3963.41087 C418.134527,3962.02427 420.277225,3961.91899 421.663818,3963.17518 Z M434.761421,3958.71221 C436.148013,3959.96959 436.253294,3962.11229 434.997105,3963.49888 C433.739721,3964.88548 431.597022,3964.99076 430.210429,3963.73337 C428.823836,3962.47718 428.718556,3960.33448 429.97594,3958.94789 C431.232129,3957.5613 433.374828,3957.45602 434.761421,3958.71221 Z M447.85929,3954.24924 C449.245883,3955.50663 449.351164,3957.64933 448.094975,3959.03592 C446.83759,3960.42251 444.694891,3960.52779 443.308299,3959.27041 C441.921706,3958.01422 441.816425,3955.87152 443.07381,3954.48493 C444.329999,3953.09833 446.472697,3952.99305 447.85929,3954.24924 Z M460.956893,3949.78627 C462.343485,3951.04365 462.448766,3953.18635 461.192577,3954.57294 C459.935193,3955.95954 457.792494,3956.06482 456.405901,3954.80743 C455.019308,3953.55124 454.914027,3951.40854 456.171412,3950.02195 C457.427601,3948.63536 459.5703,3948.53008 460.956893,3949.78627 Z M431.862428,3971.65469 C433.249021,3972.91088 433.354301,3975.05358 432.098113,3976.44017 C430.840728,3977.82677 428.698029,3977.93205 427.311436,3976.67586 C425.924843,3975.41847 425.819563,3973.27578 427.075751,3971.88918 C428.333136,3970.50259 430.475835,3970.39731 431.862428,3971.65469 Z M444.960008,3967.19181 C446.3466,3968.44799 446.451881,3970.59069 445.195692,3971.97729 C443.938308,3973.36388 441.795609,3973.46916 440.409016,3972.21297 C439.022423,3970.95559 438.917143,3968.81289 440.174527,3967.42629 C441.430716,3966.0397 443.573415,3965.93442 444.960008,3967.19181 Z M458.057842,3962.72886 C459.444435,3963.98505 459.549715,3966.12775 458.293527,3967.51434 C457.036142,3968.90093 454.893443,3969.00621 453.50685,3967.75002 C452.120257,3966.49264 452.014977,3964.34994 453.271165,3962.96335 C454.52855,3961.57675 456.671249,3961.47147 458.057842,3962.72886 Z M442.060273,3980.13291 C443.446866,3981.39029 443.552147,3983.53299 442.295958,3984.91958 C441.038573,3986.30618 438.895874,3986.41146 437.509281,3985.15407 C436.122689,3983.89788 436.017408,3981.75518 437.274793,3980.36859 C438.530982,3978.982 440.67368,3978.87672 442.060273,3980.13291 Z M455.158189,3975.6701 C456.544782,3976.92749 456.650063,3979.07019 455.393874,3980.45678 C454.136489,3981.84337 451.993791,3981.94865 450.607198,3980.69127 C449.220605,3979.43508 449.115324,3977.29238 450.372709,3975.90579 C451.628898,3974.5192 453.771597,3974.41392 455.158189,3975.6701 Z M452.25886,3988.61251 C453.645453,3989.86869 453.750734,3992.01139 452.494545,3993.39799 C451.23716,3994.78458 449.094461,3994.88986 447.707868,3993.63367 C446.321276,3992.37629 446.215995,3990.23359 447.47338,3988.84699 C448.729568,3987.4604 450.872267,3987.35512 452.25886,3988.61251 Z" id="Confetti"></path>
        </g>
    </g>
</svg>