<?xml version="1.0" encoding="UTF-8"?>
<svg width="32px" height="32px" viewBox="0 0 32 32" version="1.1" xmlns="http://www.w3.org/2000/svg" xmlns:xlink="http://www.w3.org/1999/xlink">
    <!-- Generator: Sketch 55.2 (78181) - https://sketchapp.com -->
    <title>Icon/CostHubs</title>
    <desc>Created with Sketch.</desc>
    <g id="Icon/CostHubs" stroke="none" stroke-width="1" fill="none" fill-rule="evenodd">
        <path d="M25.8235,12.221706 C25.8525,9.76070597 25.8625,7.29970597 25.8505,4.83870597 C25.8475,4.15270597 25.2885,3.59870597 24.6015,3.60268444 C18.8255,3.63670597 12.9115,3.66970597 7.1355,3.70270597 C6.4375,3.70670597 5.8835,4.28170597 5.9025,4.97770597 C5.9595,7.00570597 6.0605,10.839706 6.0735,15.219706" id="Fill" fill="#FFFFFF" fill-rule="nonzero"></path>
        <path d="M26.8235,12.221706 C26.8475,9.94070597 27.0305,7.57570597 26.8525,5.30070597 C26.7655,4.19470597 26.5875,3.32670597 25.4965,2.80470597 C23.9455,2.06170597 21.4165,2.62070597 19.7615,2.63070597 C17.4905,2.64370597 15.2195,2.65670597 12.9475,2.66970597 C10.6695,2.68270597 5.5205,1.53470597 4.9375,4.71170597 C4.7205,5.89470597 4.9645,7.27970597 4.9895,8.48070597 C5.0375,10.726706 5.0635,12.972706 5.0735,15.219706 C5.0795,16.505706 7.0795,16.508706 7.0735,15.219706 C7.0625,12.631706 7.0275,10.043706 6.9675,7.45670597 C6.9365,6.18670597 6.5915,5.17970597 8.0985,4.69770597 C9.3895,4.28470597 11.5655,4.67770597 12.9475,4.66970597 C15.8665,4.65270597 18.7845,4.63670597 21.7035,4.61870597 C22.8375,4.61270597 23.4175,4.38970597 24.2465,5.18470597 C25.0745,5.97970597 24.8565,6.47270597 24.8545,7.60770597 C24.8525,9.14570597 24.8405,10.683706 24.8235,12.221706 C24.8085,13.509706 26.8085,13.510706 26.8235,12.221706" id="Fill" fill="#0E1C3D" fill-rule="nonzero"></path>
        <path d="M5.7122,17.380306 C7.7552,17.414306 10.0022,17.367306 12.2882,17.163306 C12.4432,17.149306 12.5652,17.013306 12.5662,16.849306 C12.5732,16.150306 12.6032,15.626306 12.5912,14.850306 C12.5892,14.675306 12.7232,14.531306 12.8892,14.527306 C18.2532,14.404306 23.0232,14.288306 28.5332,14.436306 C28.7012,14.441306 28.8372,14.588306 28.8312,14.765306 C28.7352,17.380306 29.0602,27.258306 29.0882216,29.258306 C29.0902,29.438306 28.9532,29.583306 28.7822,29.5803517 C26.5872,29.545306 13.1262,29.342306 5.9672,29.528306 C5.8082,29.532306 5.6742,29.410306 5.6592,29.243306 C5.2872,25.054306 5.3782,19.110306 5.4062,17.689306 C5.4092,17.514306 5.5452,17.377306 5.7122,17.380306" id="Fill" fill="#FCB736"></path>
        <path d="M3.0745,16.307106 C5.6415,16.346106 8.1995,16.276106 10.7595,16.064106 C11.3035,16.019106 11.7535,15.642106 11.7595,15.064106 C11.7695,14.174106 11.7925,13.285106 11.7805,12.393106 C11.4475,12.727106 11.1135,13.060106 10.7805,13.393106 C16.6065,13.265106 22.4295,13.157106 28.2575,13.302106 C27.9235,12.969106 27.5905,12.636106 27.2575,12.302106 C26.9445,17.470106 27.6175,22.664106 27.5155,27.833106 C27.8485,27.500106 28.1825,27.167106 28.5155,26.833106 C20.1375,26.699106 11.7455,26.572106 3.3685,26.783106 C3.7015,27.116106 4.0345,27.449106 4.3685,27.783106 C3.9845,23.644106 3.9695,19.460106 4.0745,15.307106 C4.1065,14.020106 2.1065,14.020106 2.0745,15.307106 C1.9695,19.460106 1.9845,23.644106 2.3685,27.783106 C2.4175,28.310106 2.7865,28.797106 3.3685,28.783106 C11.7455,28.572106 20.1375,28.699106 28.5155,28.8332321 C29.0635,28.842106 29.5055,28.368106 29.5155,27.833106 C29.6175,22.664106 28.9445,17.470106 29.2575,12.302106 C29.2905,11.753106 28.7715,11.315106 28.2575,11.302106 C22.4295,11.157106 16.6065,11.265106 10.7805,11.393106 C10.2455,11.405106 9.7735,11.842106 9.7805,12.393106 C9.7925,13.285106 9.7695,14.174106 9.7595,15.064106 C10.0935,14.731106 10.4265,14.398106 10.7595,14.064106 C8.1995,14.276106 5.6415,14.346106 3.0745,14.307106 C1.7865,14.288106 1.7865,16.288106 3.0745,16.307106" id="Fill" fill="#0E1C3D" fill-rule="nonzero"></path>
    </g>
</svg>