<?xml version="1.0" encoding="UTF-8"?>
<svg width="110px" height="22px" viewBox="0 0 110 22" version="1.1" xmlns="http://www.w3.org/2000/svg" xmlns:xlink="http://www.w3.org/1999/xlink">
    <!-- Generator: Sketch 55.1 (78136) - https://sketchapp.com -->
    <title>Logo/Trust/Crocs</title>
    <desc>Created with Sketch.</desc>
    <g id="Mockups" stroke="none" stroke-width="1" fill="none" fill-rule="evenodd">
        <g id="SGOvercast-Overview" transform="translate(-785.000000, -879.000000)" fill="#B7BBC5" fill-rule="nonzero">
            <g id="Trust" transform="translate(240.000000, 813.000000)">
                <g id="Logo/Trust/Crocs" transform="translate(545.000000, 66.000000)">
                    <path d="M74.0550125,6.7411125 C75.4891375,6.7411125 76.8742625,7.4962375 77.6337625,8.5532375 C77.6512625,8.5821125 77.6731375,8.6074875 77.6932625,8.6381125 C77.7203875,8.6792375 77.7562625,8.7194875 77.7842625,8.7632375 L77.7860125,8.7597375 C78.2961375,9.3906125 79.0731375,9.7948625 79.9472625,9.7948625 C81.4802625,9.7948625 82.7271375,8.5506125 82.7271375,7.0167375 C82.7271375,6.2939875 82.4515125,5.6403625 82.0000125,5.1468625 C80.0890125,2.7913625 77.8131375,1.4412375 74.0550125,1.4412375 C68.0831375,1.4412375 63.5943875,5.5721125 63.5943875,11.3663625 C63.5943875,17.2472375 68.0831375,21.3798625 74.0550125,21.3798625 C77.8726375,21.3798625 80.1187625,20.0323625 82.0035125,17.9227375 L82.0000125,17.9183625 C82.4226375,17.4379875 82.6816375,16.8106125 82.6816375,16.1202375 C82.6816375,14.6169875 81.4636375,13.3998625 79.9612625,13.3998625 C79.1387625,13.3998625 78.4037625,13.7656125 77.9032625,14.3431125 C77.0090125,15.2364875 75.9756375,16.1254875 74.0550125,16.1254875 C71.3171375,16.1254875 69.7885125,14.1506125 69.7885125,11.3663625 C69.7885125,8.6722375 71.3171375,6.7411125 74.0550125,6.7411125 M49.8673875,16.2611125 C47.1732625,16.2611125 45.5107625,14.2844875 45.5107625,11.4564875 C45.5107625,8.5829875 47.1732625,6.6501125 49.8673875,6.6501125 C52.5615125,6.6501125 54.1776375,8.5829875 54.1776375,11.4564875 C54.1776375,14.2844875 52.5615125,16.2611125 49.8673875,16.2611125 M49.8673875,1.4412375 C43.9392625,1.4412375 39.3140125,5.6184875 39.3140125,11.4564875 C39.3140125,17.2472375 43.9392625,21.3798625 49.8673875,21.3798625 C55.7937625,21.3798625 60.3743875,17.2472375 60.3743875,11.4564875 C60.3743875,5.6184875 55.7937625,1.4412375 49.8673875,1.4412375 M95.3061375,9.0301125 C92.7003875,8.4464875 91.4885125,8.3117375 91.4885125,7.2346125 C91.4885125,6.4724875 92.1613875,6.1128625 93.5526375,6.1128625 C94.9920125,6.1128625 96.3377625,6.7857375 97.2355125,7.5496125 L97.2398875,7.5443625 C97.6616375,7.9424875 98.2286375,8.1883625 98.8533875,8.1883625 C100.162387,8.1883625 101.224637,7.1269875 101.224637,5.8153625 C101.224637,5.1162375 100.914012,4.4923625 100.431887,4.0583625 C98.8621375,2.4614875 96.6291375,1.4412375 93.5097625,1.4412375 C89.4217625,1.4412375 86.1002625,3.1947375 86.1002625,7.5041125 C86.1002625,11.5002375 89.0183875,12.9361125 91.6223875,13.6133625 C94.7198875,14.4192375 95.9326375,14.4192375 95.9326375,15.4534875 C95.9326375,16.2611125 95.3061375,16.6207375 93.3295125,16.6207375 C91.7825125,16.6207375 90.3396375,16.0537375 89.1365125,15.0938625 L89.1951375,15.1472375 C89.1907625,15.1446125 89.1890125,15.1446125 89.1881375,15.1411125 C88.2221375,14.2626125 86.7285125,14.3019875 85.8193875,15.2487375 C85.0800125,16.0204875 84.9618875,17.1544875 85.4396375,18.0513625 C85.4553875,18.0828625 85.4746375,18.1143625 85.4912625,18.1449875 C85.5358875,18.2202375 85.5787625,18.2911125 85.6321375,18.3619875 C85.6688875,18.4118625 85.7117625,18.4582375 85.7528875,18.5054875 C85.7983875,18.5571125 85.8368875,18.6148625 85.8885125,18.6647375 C85.9270125,18.7023625 85.9716375,18.7259875 86.0118875,18.7618625 C87.6770125,20.2581125 90.0815125,21.3798625 93.7337625,21.3798625 C99.7493875,21.3798625 101.590387,18.5063625 101.590387,15.0037375 C101.590387,10.9638625 98.0877625,9.6601125 95.3061375,9.0301125 M10.4635125,6.7411125 C7.7238875,6.7411125 6.1952625,8.6722375 6.1952625,11.3663625 C6.1952625,14.1506125 7.7238875,16.1254875 10.4635125,16.1254875 C12.3850125,16.1254875 13.4183875,15.2364875 14.3126375,14.3431125 C14.8122625,13.7656125 15.5463875,13.3998625 16.3697625,13.3998625 C17.8721375,13.3998625 19.0892625,14.6169875 19.0892625,16.1202375 C19.0892625,16.8106125 18.8311375,17.4379875 18.4085125,17.9183625 L18.4120125,17.9227375 C16.5246375,20.0323625 14.2793875,21.3798625 10.4635125,21.3798625 C4.4916375,21.3798625 0.0002625,17.2472375 0.0002625,11.3663625 C0.0002625,5.5721125 4.4916375,1.4412375 10.4635125,1.4412375 C14.2216375,1.4412375 16.4992625,2.7931125 18.4120125,5.1503625 C18.8573875,5.6438625 19.1338875,6.2966125 19.1338875,7.0167375 C19.1338875,8.5506125 17.8905125,9.7948625 16.3566375,9.7948625 C15.4807625,9.7948625 14.7011375,9.3906125 14.1927625,8.7597375 L14.1901375,8.7632375 C14.1647625,8.7186125 14.1262625,8.6774875 14.0982625,8.6346125 C14.0790125,8.6074875 14.0597625,8.5821125 14.0431375,8.5532375 C13.2801375,7.4962375 11.8967625,6.7411125 10.4635125,6.7411125 Z M36.311625,2.6737625 C37.1455,3.0972625 37.7825,3.8891375 37.963625,4.8805125 C38.273375,6.5692625 37.155125,8.1871375 35.46725,8.4977625 C34.601875,8.6543875 33.49675,8.2335125 33.067125,8.2413875 C31.439625,8.2755125 28.53375,9.5425125 28.53375,14.5702625 L28.53375,18.2548875 C28.50575,19.9462625 27.129375,21.3086375 25.430125,21.3086375 C23.74925,21.3086375 22.38425,19.9733875 22.32825,18.3065125 L22.32825,4.7562625 C22.371125,3.0753875 23.74225,1.7287625 25.430125,1.7287625 C27.069,1.7287625 28.399875,2.9913875 28.5215,4.5961375 L28.5215,4.6136375 L28.52325,4.6136375 C28.527625,4.6512625 28.532,4.6906375 28.53375,4.7300125 L28.53375,4.6013875 C28.888125,4.1603875 30.828,2.4051375 33.329625,2.1951375 C34.713,2.0778875 35.37975,2.1802625 36.311625,2.6737625 Z M103.405137,1.64835 L103.492637,1.64835 L103.492637,1.171475 C103.492637,1.045475 103.496137,0.9431 103.502262,0.870475 C103.509262,0.798725 103.529387,0.735725 103.558262,0.68235 C103.588887,0.62985 103.634387,0.58435 103.692137,0.5511 C103.749012,0.516975 103.813762,0.50035 103.883762,0.50035 C103.984387,0.50035 104.075387,0.5371 104.155012,0.6141 C104.209262,0.663975 104.242512,0.7261 104.258262,0.798725 C104.272262,0.870475 104.279262,0.9746 104.279262,1.108475 L104.279262,1.64835 L104.568887,1.64835 C104.680887,1.64835 104.766637,1.675475 104.825262,1.72885 C104.883012,1.78135 104.914512,1.8496 104.914512,1.9336 C104.914512,2.0386 104.871637,2.112975 104.787637,2.15585 C104.703637,2.198725 104.584637,2.219725 104.427137,2.219725 L104.279262,2.219725 L104.279262,3.668725 C104.279262,3.791225 104.285387,3.885725 104.292387,3.953975 C104.301137,4.0196 104.324762,4.072975 104.360637,4.1141 C104.400012,4.155225 104.461262,4.176225 104.545262,4.176225 C104.591637,4.176225 104.654637,4.167475 104.733387,4.15085 C104.813012,4.13685 104.876012,4.127225 104.918887,4.127225 C104.984512,4.127225 105.038762,4.153475 105.092137,4.20335 C105.142887,4.254975 105.169137,4.317975 105.169137,4.394975 C105.169137,4.522725 105.099137,4.61985 104.959137,4.6881 C104.820012,4.755475 104.622262,4.788725 104.360637,4.788725 C104.114762,4.788725 103.928387,4.7476 103.799762,4.66535 C103.675512,4.58135 103.591512,4.466725 103.551262,4.321475 C103.511012,4.174475 103.492637,3.97935 103.492637,3.733475 L103.492637,2.219725 L103.387637,2.219725 C103.274762,2.219725 103.188137,2.193475 103.128637,2.139225 C103.067387,2.084975 103.037637,2.014975 103.037637,1.9336 C103.037637,1.8496 103.070012,1.78135 103.132137,1.72885 C103.195137,1.675475 103.285262,1.64835 103.405137,1.64835 Z M108.144137,3.240325 L108.144137,4.2912 C108.144137,4.458325 108.104762,4.580825 108.030387,4.6657 C107.956012,4.74795 107.857137,4.789075 107.731137,4.789075 C107.613012,4.789075 107.515012,4.74795 107.439762,4.6657 C107.364512,4.580825 107.328637,4.458325 107.328637,4.2912 L107.328637,3.0312 C107.328637,2.832575 107.322512,2.678575 107.308512,2.56745 C107.295387,2.458075 107.258637,2.36795 107.199137,2.29795 C107.139637,2.22795 107.045137,2.192075 106.915637,2.192075 C106.659262,2.192075 106.487762,2.28045 106.408137,2.458075 C106.324137,2.636575 106.284762,2.89295 106.284762,3.222825 L106.284762,4.2912 C106.284762,4.4557 106.248012,4.579075 106.173637,4.663075 C106.098387,4.747075 106.001262,4.789075 105.877887,4.789075 C105.758012,4.789075 105.659137,4.747075 105.583887,4.663075 C105.506887,4.579075 105.469262,4.454825 105.469262,4.2912 L105.469262,2.027575 C105.469262,1.8797 105.504262,1.76595 105.572512,1.689825 C105.642512,1.612825 105.732637,1.574325 105.843762,1.574325 C105.951387,1.574325 106.042387,1.609325 106.115887,1.682825 C106.187637,1.754575 106.223512,1.8552 106.223512,1.98295 L106.223512,2.0582 C106.359137,1.894575 106.507012,1.77295 106.662762,1.6942 C106.818512,1.618075 106.993512,1.5787 107.185137,1.5787 C107.382887,1.5787 107.553512,1.61895 107.696137,1.69945 C107.836137,1.77645 107.956012,1.898075 108.048762,2.0582 C108.180012,1.896325 108.324387,1.7747 108.475762,1.6977 C108.629762,1.61895 108.798637,1.5787 108.984137,1.5787 C109.200262,1.5787 109.385762,1.62245 109.543262,1.7082 C109.699012,1.7922 109.815387,1.9147 109.893262,2.073075 C109.962387,2.2157 109.995637,2.440575 109.995637,2.748575 L109.995637,4.2912 C109.995637,4.458325 109.957137,4.580825 109.881887,4.6657 C109.804887,4.74795 109.706887,4.789075 109.583512,4.789075 C109.462762,4.789075 109.365637,4.747075 109.289512,4.663075 C109.212512,4.579075 109.174887,4.4557 109.174887,4.2912 L109.174887,2.963825 C109.174887,2.79145 109.166137,2.6567 109.150387,2.554325 C109.137262,2.452825 109.099637,2.3662 109.034887,2.2962 C108.970137,2.227075 108.874762,2.192075 108.745262,2.192075 C108.641137,2.192075 108.542262,2.2227 108.448637,2.2857 C108.355012,2.346075 108.283262,2.4292 108.231637,2.533325 C108.173012,2.6672 108.144137,2.9017 108.144137,3.240325 Z" id="Crocs"></path>
                </g>
            </g>
        </g>
    </g>
</svg>