<?xml version="1.0" encoding="UTF-8"?>
<svg width="120px" height="109px" viewBox="0 0 120 109" version="1.1" xmlns="http://www.w3.org/2000/svg" xmlns:xlink="http://www.w3.org/1999/xlink">
    <!-- Generator: Sketch 55.2 (78181) - https://sketchapp.com -->
    <title>Icon/DATA</title>
    <desc>Created with Sketch.</desc>
    <g id="Icon/DATA" stroke="none" stroke-width="1" fill="none" fill-rule="evenodd">
        <path d="M74.3203795,90.0172867 C70.4545129,91.6097248 60.7908843,96.1711152 49.86597,91.6938105 C42.1311224,88.5245057 42.4503367,81.3953867 42.4503367,81.3953867 C42.4409938,77.3914533 39.8452367,73.5878724 37.3942938,70.5047295 C32.9725271,64.9426152 30.4079129,57.7164343 30.6965033,49.8564962 C31.2643414,34.398739 43.1832319,21.6218629 57.9901033,20.6284057 C74.9889129,19.4885771 89.139189,33.5059771 89.1797662,50.9937295 C89.1988795,59.0882771 86.1915176,66.4525248 81.269389,71.9238057 C78.9430176,74.509701 77.6900367,77.9468343 77.6988605,81.4919295 C77.6988605,81.4919295 77.6656414,88.6392152 74.3203795,90.0172867" id="Fill-1" fill="#FBB03B" fill-rule="nonzero"></path>
        <path d="M9.5,48.403968 C9.49995843,48.3978829 9.49995848,48.3917928 9.5,48.3856982 L9.5,46.9605766 L20.3921318,46.9605766 L20.3921318,50.0310441 L9.5,50.0310441 L9.5,48.403968 Z M54.3786219,78.3668476 C54.1798267,80.006519 51.5830314,80.0210524 51.7833838,78.3668476 C52.4119505,73.1794857 53.0405171,67.9921238 53.5870743,62.7949 C54.0152886,58.7260857 54.4653029,54.5145333 53.7344838,50.4529857 C53.4028124,48.6098476 52.8448362,46.8092714 51.9479219,45.1602571 C51.5093267,44.3531381 51.0048124,43.3949762 50.3087695,42.7799048 C49.5156648,42.0786714 48.6701362,42.5245333 48.0343029,43.2117524 C45.2309267,46.2429905 47.774779,50.2401762 50.2797029,52.4331524 C55.1629029,56.7095857 64.64746,60.6725143 70.3907219,55.7618048 C72.4544552,53.9965238 73.727679,51.0426238 72.615879,48.4001524 C71.99406,46.9245 70.3164981,45.3242762 68.5865124,45.8765429 C66.8736552,46.4231 65.9803743,48.5574238 65.6653124,50.1716619 C65.3326029,51.8793286 65.4768981,53.6648524 65.606141,55.3865333 C65.7795029,57.6973333 65.9622076,60.0081333 66.14076,62.3189333 C66.4905981,66.8548905 66.8404362,71.3908476 67.1902743,75.9268048 C67.3189981,77.5955429 64.7227219,77.5815286 64.5950362,75.9268048 C64.0936362,69.422619 63.5917171,62.9179143 63.0897981,56.4137286 C62.893079,53.8594952 62.6403029,51.2211762 63.3446505,48.7172905 C63.9654314,46.5118571 65.4743029,44.1995 67.7311219,43.4214476 C71.8502838,42.0008143 75.34036,46.2528524 75.5983267,49.9853238 C75.8511029,53.649281 73.5325171,57.1326095 70.414079,58.8911429 C66.391979,61.159381 61.3681171,60.8043524 57.1446267,59.3240286 C53.0104124,57.8743286 48.7251552,55.3299571 46.1122695,51.7381476 C43.6639219,48.3726429 43.3691029,43.076281 47.1996743,40.5230857 C51.7013743,37.5224714 54.7352076,44.2233762 55.7245124,47.5821333 C57.0236886,51.9950762 56.7901171,56.6898619 56.3447743,61.2123238 C55.7810886,66.9400143 55.0710314,72.6536905 54.3786219,78.3668476 Z M58.5568514,1.2535519 C58.5568514,-0.419338571 61.1520895,-0.416224286 61.1520895,1.2535519 L61.1520895,11.3568138 C61.1520895,13.0291852 58.5568514,13.02659 58.5568514,11.3568138 L58.5568514,1.2535519 Z M87.513999,22.3388233 C86.1276229,23.2808948 84.8310419,21.0313424 86.2044419,20.0980948 C88.5588419,18.4973519 90.913761,16.896609 93.268161,15.2958662 C94.6545371,14.3532757 95.9511181,16.6028281 94.5777181,17.5365948 C92.2233181,19.1373376 89.868399,20.7380805 87.513999,22.3388233 Z M31.1785948,21.26372 C32.7030376,21.9426343 31.3810233,24.1781724 29.8685186,23.5044486 C26.700771,22.0936771 23.8574281,20.0507057 21.577771,17.4305533 C20.4856948,16.1749771 22.3148186,14.3328771 23.4131233,15.595201 C25.5656138,18.069501 28.1873233,19.9313248 31.1785948,21.26372 Z M100.827778,47.672811 C99.1548876,47.672811 99.1574829,45.0775729 100.827778,45.0775729 L108.616088,45.0775729 C110.288978,45.0775729 110.286383,47.672811 108.616088,47.672811 L100.827778,47.672811 Z M27.1493838,73.3210819 C28.3753743,72.189039 30.21436,74.0212771 28.9842171,75.1564343 C27.3435076,76.6704962 25.7033171,78.1845581 24.0626076,79.699139 C22.8360981,80.8306629 20.9971124,78.9989438 22.2277743,77.8637867 C23.8679648,76.3492057 25.5086743,74.8351438 27.1493838,73.3210819 Z M92.9508152,76.3309352 C91.7206724,75.195259 93.5601771,73.3645781 94.7861676,74.4955829 C96.4263581,76.0101638 98.0670676,77.5242257 99.7082962,79.0382876 C100.938439,80.1739638 99.0989343,82.0051638 97.8724248,80.87364 C96.2322343,79.359059 94.5915248,77.8449971 92.9508152,76.3309352 Z M75.346329,87.8285667 C76.7358195,86.8901286 78.0329195,89.139681 76.6558862,90.0692952 C70.1195195,94.4837952 62.0986767,96.0227714 54.3799195,94.4355238 C51.5646052,93.8567857 48.7145148,92.8622905 46.285891,91.298919 C44.7765005,90.3272619 43.0350957,88.9637238 42.60221,87.1159143 C42.221229,85.4887 44.7240767,84.8004429 45.1045386,86.425581 C45.3853433,87.6240619 47.0110005,88.7353429 48.2068862,89.4313857 C50.4159529,90.7170667 52.891291,91.5138048 55.3931005,91.9975571 C62.35301,93.3439667 69.4909529,91.7826714 75.346329,87.8285667 Z M70.337779,96.2209957 C71.6276124,95.1834195 73.4743838,97.0099481 72.1726124,98.0563481 C68.6451648,100.891386 63.9758124,101.866677 59.524979,101.714596 C55.3565076,101.572377 50.8018648,100.50262 47.6818695,97.5715576 C46.4615886,96.4249814 48.3005743,94.5932624 49.5172219,95.7362052 C52.1171314,98.1783243 56.06916,99.0015338 59.524979,99.1193576 C63.2169648,99.2454862 67.3766124,98.600829 70.337779,96.2209957 Z M64.4265533,104.345544 C65.7324771,103.335997 67.5808057,105.160449 66.2613867,106.180897 C64.5142724,107.531978 62.6171533,108.578897 60.3722724,108.733573 C58.0329248,108.895516 55.8046533,107.957078 53.8556295,106.747697 C52.4375914,105.867911 53.7419581,103.623549 55.1651867,104.506968 C56.6320152,105.416859 58.2369105,106.199063 60.0058248,106.154944 C61.6517248,106.11394 63.14762,105.334849 64.4265533,104.345544 Z" id="Combined-Shape" fill="#0E1C3D" fill-rule="nonzero"></path>
    </g>
</svg>