<?xml version="1.0" encoding="UTF-8"?>
<svg width="32px" height="32px" viewBox="0 0 32 32" version="1.1" xmlns="http://www.w3.org/2000/svg" xmlns:xlink="http://www.w3.org/1999/xlink">
    <!-- Generator: Sketch 55.2 (78181) - https://sketchapp.com -->
    <title>Icon/Forecast</title>
    <desc>Created with Sketch.</desc>
    <g id="Icon/Forecast" stroke="none" stroke-width="1" fill="none" fill-rule="evenodd">
        <path d="M32.1054,17.8304 C31.7494,20.0974 30.4584,21.9264 28.6504,23.3414 C26.2184,25.2454 23.8964,26.7204 20.8114,26.8624 C19.7864,26.9094 17.8164,27.1334 16.8024,26.9714 C13.7964,26.4894 10.7534,26.3334 8.1234,24.8024 C5.4924,23.2724 3.3214,20.2704 1.9774,17.5394 C3.1674,14.4634 5.5094,11.7894 8.3424,10.1014 C11.1754,8.4134 14.5154,7.6294 17.8124,7.7314 C18.6404,7.7574 19.4684,7.8374 20.2754,8.0264 C21.0274,8.2034 21.7534,8.4724 22.4624,8.7754 C26.5464,10.5214 30.2274,13.8054 32.1054,17.8304 Z M19.6211,11.8685 C18.8871,10.8695 16.7001,10.6465 15.4751,10.8345 C13.5621,11.1285 12.6041,12.8225 12.0651,14.4545 C11.8581,15.0805 11.7431,15.7485 11.8381,16.4005 C12.0861,18.1005 13.7201,19.3085 15.3921,19.6985 C16.3481,19.9215 17.3671,19.9395 18.2961,19.6225 C20.0371,19.0275 21.2541,17.2145 21.2401,15.3735 C21.2261,13.5335 20.0401,11.7785 18.3781,10.9885 L19.6211,11.8685 Z" id="Fill" fill="#FCB736"></path>
        <path d="M30.2549,14.8417 C30.5159,13.5797 32.4429,14.1167 32.1839,15.3737 C30.7609,22.2537 22.9019,25.6117 16.4929,25.2997 C13.0759,25.1337 8.9579,24.4877 6.0839,22.5307 C4.6699,21.5687 3.4949,20.3097 2.4679,18.9527 C1.7199,17.9657 0.2019,16.2337 0.1089,14.9497 C0.0169,13.6837 1.3789,11.9277 2.0739,10.9747 C3.0359,9.6547 4.1789,8.5047 5.4789,7.5187 C8.2959,5.3827 11.7619,4.2387 15.2759,4.0317 C22.3689,3.6137 29.0019,8.3957 32.0819,14.6027 C32.6529,15.7537 30.9279,16.7657 30.3559,15.6127 C27.8859,10.6347 22.6759,6.2217 16.9259,6.0087 C13.8179,5.8937 10.6379,6.6467 7.9609,8.2417 C6.0309,9.3917 2.7239,12.0317 2.4449,14.4667 C2.1679,16.8877 6.0979,20.3527 8.1049,21.4087 C10.5169,22.6777 13.7889,23.1547 16.4929,23.2997 C22.0419,23.5987 29.0129,20.8517 30.2549,14.8417 Z M20.1425,10.6034 C21.0265,11.5394 19.6145,12.9554 18.7285,12.0174 C17.5795,10.8024 15.0345,10.9504 13.9295,12.1144 C12.5015,13.6204 12.0765,16.2204 13.9265,17.4954 C15.8185,18.7964 18.5995,18.5594 19.6765,16.3584 C20.6545,14.3634 19.5045,12.2904 17.6865,11.2934 C16.5565,10.6744 17.5665,8.9484 18.6965,9.5664 C21.6785,11.2014 23.0885,14.9364 21.0985,17.9084 C19.2335,20.6914 15.3275,20.9634 12.6985,19.0854 C9.8555,17.0554 10.2465,13.0774 12.5155,10.7004 C14.3675,8.7604 18.2535,8.6044 20.1425,10.6034 Z" id="Fill" fill="#0E1C3D" fill-rule="nonzero"></path>
    </g>
</svg>