<?xml version="1.0" encoding="UTF-8"?>
<svg width="120px" height="109px" viewBox="0 0 120 109" version="1.1" xmlns="http://www.w3.org/2000/svg" xmlns:xlink="http://www.w3.org/1999/xlink">
    <!-- Generator: Sketch 55.2 (78181) - https://sketchapp.com -->
    <title>Icon/Free</title>
    <desc>Created with Sketch.</desc>
    <g id="Icon/Free" stroke="none" stroke-width="1" fill="none" fill-rule="evenodd">
        <path d="M68.8212575,85.2373102 C69.4002515,87.6855018 14.0454491,97.7157054 1.51306587,98.621382 C-0.086742515,98.7370707 -1.14501796,96.9918251 -0.301041916,95.6278012 C11.8589341,75.9750587 34.3102395,39.4180048 35.4274611,40.2008311 C47.2089701,48.4587952 64.4807305,66.8824838 68.8212575,85.2373102" id="Fill-1" fill="#FBB03B" fill-rule="nonzero"></path>
        <path d="M71.7006293,79.0612546 C71.8771425,79.772182 72.0141054,80.4666068 72.1101188,81.1434043 C72.4439775,83.4973656 70.7415283,85.9739249 68.423432,86.4698726 C66.6209652,86.8560732 59.0808675,81.1312833 52.6518942,74.2589896 C43.7049217,64.6950638 36.9727168,53.5064943 34.0451005,41.3996557 C33.5822093,39.4849913 34.9984888,38.4744389 36.9480289,38.5203714 C38.3442875,38.5532682 40.0242126,39.0914307 41.1250164,39.8697103 C43.5056832,41.5524049 46.9729132,44.6279006 50.6216802,48.2874749 C53.2847782,46.865511 55.3600325,44.4218697 56.1235497,41.4037174 C57.1944958,37.1733701 55.3385198,32.4406036 51.7934898,29.9439329 C52.4843162,29.5478371 53.1751425,29.1511904 53.8659689,28.7545437 C54.0317892,33.6492743 58.134879,38.0685796 63.1254659,38.1269749 C67.3045796,38.1765557 71.4098731,35.4132503 72.5474778,31.3283401 C73.1104958,29.3032383 72.974424,27.1393102 72.2571545,25.1704 C71.6456575,23.492915 70.2171784,21.0067114 68.2460647,20.7086754 C66.7850826,20.4877653 67.6698251,21.9228551 68.2124599,22.5497772 C68.9754539,23.433418 69.905921,24.2167952 70.8672383,24.8734659 C72.8559808,26.2330826 75.1146635,27.1558371 77.4945437,27.5458731 C82.4096575,28.3512862 87.4757174,26.5961246 91.0356216,23.173394 C92.3148072,21.9437892 94.263885,23.8901126 92.9830467,25.1208192 C87.5291545,30.3648192 79.468412,31.9227593 72.5045078,28.909897 C69.7494659,27.7183042 66.4385677,25.6116695 65.0844599,22.8158611 C63.709418,19.9770826 65.9818731,17.3548072 68.9782084,18.0522443 C71.6362922,18.6714539 73.5324838,21.1835497 74.5648671,23.5645317 C75.7388311,26.2716455 75.9999569,29.4062563 75.1510228,32.2472383 C73.5016335,37.7705437 67.686903,41.4356695 61.993921,40.8081964 C55.9511186,40.1427114 51.3147593,34.7450108 51.1114778,28.7545437 C51.0778731,27.7662323 52.3289629,26.9635737 53.1839569,27.5657054 C57.664412,30.7206994 60.0354778,36.3415138 58.8703281,41.7507832 C58.0989908,45.3307222 55.7219001,48.4342917 52.6223872,50.3344862 C54.576517,52.3735779 56.5354721,54.5356221 58.3642756,56.7000046 C64.3291523,63.7594153 68.6947911,70.4399299 70.8223456,76.2279985 C72.6240914,76.3058866 74.4088472,76.6296804 76.1461653,77.1894036 C77.8291593,77.7320383 77.105279,80.3906731 75.4134707,79.8458347 C74.1835422,79.4494609 72.9479727,79.1892071 71.7006293,79.0612546 Z M69.3275878,78.976001 C68.7085457,78.9942266 68.0857564,79.043578 67.4585006,79.1236072 C65.7022371,79.3478228 65.7242731,76.5900263 67.4585006,76.3691162 C67.7740055,76.3288931 68.0895678,76.2963205 68.4050264,76.2713454 C66.2926793,70.9572182 62.1814628,64.7390132 56.6282801,58.1668409 C54.6772573,55.8578123 52.5743496,53.5507356 50.494169,51.4010105 C49.5892269,51.7602244 48.646198,52.0213902 47.6821365,52.1704719 C45.9457054,52.4393102 45.2036455,49.7845317 46.9499928,49.5145916 C47.4176136,49.4422423 47.8785985,49.3410706 48.330294,49.2127157 C45.0259824,45.9442327 41.9406594,43.2293504 39.8130961,41.7255535 C39.0872842,41.2123971 37.8464493,40.8148968 36.8944968,40.7924681 C36.5539017,40.7844435 36.3079556,40.8270812 36.1972436,40.8773017 L36.2137395,40.8386305 C36.2300267,40.8217772 36.2431452,40.8199178 36.2541721,40.8655286 C39.0796279,52.5498932 45.6128619,63.4077836 54.3115956,72.7063529 C57.5496623,76.1677059 60.9105325,79.1986528 63.9195469,81.4832353 C65.1562174,82.4221725 66.2669169,83.181264 67.1272702,83.6866132 C67.5078536,83.9101579 67.823372,84.0741827 68.0507178,84.169929 C68.1062053,84.1932975 68.1347994,84.2020251 68.0318228,84.2282063 L68.0143757,84.2319097 C69.1277737,83.9496798 70.0238967,82.6188634 69.8599191,81.4626071 C69.7468258,80.6654208 69.5684278,79.8356095 69.3275878,78.976001 Z M68.556,52.6527832 C66.7837605,52.6070587 66.7826587,49.8525677 68.556,49.8982922 C73.6567665,50.0288551 79.1668503,49.9054539 83.7156168,47.2952982 C87.5438084,45.0988671 90.4161916,41.0591305 89.9550898,36.516424 C89.775497,34.751897 92.5316407,34.7700766 92.7095808,36.516424 C93.2373413,41.7141485 90.0388263,46.5003521 85.8068263,49.2454778 C80.759497,52.5194659 74.3828503,52.8020766 68.556,52.6527832 Z M46.1924527,18.4007976 C47.0292671,19.9653485 44.6499377,21.3547138 43.8142251,19.7912647 C42.0100335,16.4175641 39.4213629,13.6410371 36.157291,11.6401749 C34.647279,10.714115 36.032788,8.33313293 37.548309,9.26194731 C41.1980096,11.4991449 44.172309,14.6232886 46.1924527,18.4007976 Z M84.9231856,18.6479856 C84.7716886,20.4036982 82.0166467,20.4141653 82.1686946,18.6479856 C82.3912575,16.0653749 82.6143713,13.4822132 82.8369341,10.8990515 C82.9878802,9.14333892 85.7434731,9.13342275 85.5914251,10.8990515 C85.3688623,13.4822132 85.1457485,16.0653749 84.9231856,18.6479856 Z M83.0886395,62.0670275 C81.3268671,61.9474826 81.3191545,59.1924407 83.0886395,59.3125365 C86.4452623,59.5400575 89.8013341,59.7675784 93.1568551,59.9950994 C94.9197293,60.1146443 94.9263401,62.8696862 93.1568551,62.7495904 C89.8013341,62.5220695 86.4452623,62.2945485 83.0886395,62.0670275 Z M91.0357868,53.3772144 C89.6464216,52.2765198 91.6081701,50.3401126 92.983212,51.4292383 C95.2837629,53.2510587 98.4552838,53.9303162 101.310589,53.2901725 C102.6972,52.9794659 104.164242,52.3971665 105.182302,51.3708431 C105.826302,50.7213341 106.862541,48.4637533 105.256122,48.1491904 C103.353871,47.7767832 104.006134,50.6254778 104.661703,51.3890228 C105.751931,52.6582922 107.568793,53.2350826 109.115164,53.7105078 C112.089463,54.6255497 115.391547,54.9891425 118.200026,53.395394 C119.745296,52.5178132 121.131907,54.8987952 119.590493,55.7736216 C115.538637,58.0730707 110.650517,57.3629629 106.496194,55.700903 C104.681535,54.9742683 102.90544,53.9760407 101.901703,52.2269389 C101.003188,50.6618371 100.847835,48.6692383 101.914925,47.1460048 C104.181871,43.9100287 108.745511,45.6448072 108.857895,49.4228671 C108.970278,53.2301246 104.68429,55.5025796 101.451619,56.0639449 C97.7121222,56.7134539 93.9974156,55.7218371 91.0357868,53.3772144 Z M78.5227401,93.7533701 C78.1734707,92.0196934 80.8293509,91.2847952 81.1791713,93.0212263 C81.6694707,95.4523401 80.9202491,97.9754539 78.9910036,99.5912383 C77.6396503,100.722783 75.682309,98.7830707 77.0424766,97.6438132 C78.2010156,96.6736814 78.8290395,95.2694419 78.5227401,93.7533701 Z M80.1442539,71.8879449 C78.5868647,72.7401844 77.1980503,70.3608551 78.7537868,69.5097174 C82.3269126,67.5540287 86.865212,65.9426515 90.5677988,68.5528072 C93.4660743,70.5960886 94.0522299,74.8407593 91.6475593,77.5164719 C89.7337389,79.6462443 84.5090204,80.6984599 83.1868647,77.3170467 C81.5925653,73.2392982 88.8826012,73.0393222 91.0828886,73.6078491 C94.6020263,74.5162802 97.2733317,77.4090467 98.1255713,80.9061485 C98.5453557,82.6310108 95.8883737,83.3598491 95.4691401,81.6382922 C94.8179784,78.9647832 92.8617389,76.8245437 90.1331401,76.2075377 C88.9283257,75.9348431 86.9296671,75.8329269 85.8510084,76.5942683 C85.6493796,76.7027952 85.6576431,76.7049988 85.874697,76.6003281 C86.0509844,76.4752743 86.2360862,76.4901485 86.4289006,76.6444 C86.6834156,76.6724958 86.9175473,76.7264838 87.1775713,76.7259329 C87.7505054,76.7237293 88.3162778,76.5650707 88.8159425,76.2885198 C91.4668647,74.820376 90.5149126,71.2494539 88.0077749,70.2892383 C85.3160862,69.2579569 82.4894275,70.6043521 80.1442539,71.8879449 Z" id="Combined-Shape" fill="#0E1C3D" fill-rule="nonzero"></path>
    </g>
</svg>