<?xml version="1.0" encoding="UTF-8"?>
<svg width="106px" height="52px" viewBox="0 0 106 52" version="1.1" xmlns="http://www.w3.org/2000/svg" xmlns:xlink="http://www.w3.org/1999/xlink">
    <!-- Generator: Sketch 55.1 (78136) - https://sketchapp.com -->
    <title>Logo/Trust/Fujitsu</title>
    <desc>Created with Sketch.</desc>
    <g id="Mockups" stroke="none" stroke-width="1" fill="none" fill-rule="evenodd">
        <g id="SGOvercast-Overview" transform="translate(-966.000000, -864.000000)" fill="#B7BBC5" fill-rule="nonzero">
            <g id="Trust" transform="translate(240.000000, 813.000000)">
                <g id="Logo/Trust/Fujitsu" transform="translate(726.000000, 51.000000)">
                    <path d="M7.72853123,41.75 L0.625,41.75 C0.625,41.75 1.96025949,41.1160816 1.96025949,39.9066704 L1.96025949,19.8538153 C1.96025949,18.4714642 0.625,18.125 0.625,18.125 L15.5,18.125 L15.5,22.1014504 C15.5,22.1014504 15.1355585,20.7757722 13.9819042,20.7757722 L6.39265613,20.7757722 L6.39265613,27.287312 L14.1031794,27.287312 L14.1031794,30.9172983 C14.1031794,30.9172983 13.8606289,30.0525986 12.76792,30.0525986 L6.39265613,30.0525986 L6.39265613,39.848829 C6.39265613,41.173923 7.72853123,41.75 7.72853123,41.75 Z M95.9017838,42.5621173 C90.8734934,42.5451417 87.3794382,39.521725 87.3794382,36.4166417 L87.3794382,20.2501417 C87.3794382,19.0998083 85.9777912,18.5246417 85.9777912,18.5246417 L92.8664603,18.5246417 C92.8664603,18.5246417 91.4654051,19.0998083 91.4654051,20.192975 L91.4654051,36.4166417 C91.4654051,37.9671417 93.6643574,39.9551417 95.7851772,39.9411417 C97.866339,39.9265583 99.9883426,37.983475 99.9883426,36.4166417 L99.9883426,20.2221417 C99.9883426,19.0140583 98.5872875,18.5538083 98.5872875,18.5538083 L105.475957,18.5538083 C105.475957,18.5538083 104.074901,19.0140583 104.074901,20.2221417 L104.074901,36.4166417 C104.074901,39.4383083 100.589725,42.5778083 95.9017838,42.5621173 Z M26.1726837,42.625 C21.2078071,42.6076977 17.758223,39.526105 17.758223,36.3612743 L17.758223,19.8837017 C17.758223,18.7112339 16.375,18.125 16.375,18.125 L23.1759927,18.125 C23.1759927,18.125 21.7927696,18.7112339 21.7927696,19.8254351 L21.7927696,36.3612743 C21.7927696,37.9416087 23.96315,39.9678614 26.0575612,39.953592 C28.1122348,39.9387281 30.2072304,37.9582563 30.2072304,36.3612743 L30.2072304,19.8254351 C30.2072304,18.594106 28.8240073,18.125 28.8240073,18.125 L35.625,18.125 C35.625,18.125 34.241777,18.594106 34.241777,19.8254351 L34.241777,36.3612743 C34.241777,39.4410833 30.8009585,42.6409929 26.1726837,42.625 Z M45.25,18.125 C45.25,18.125 43.7310927,18.7071675 43.7310927,19.9305459 L43.7310927,45.0859686 C43.7310927,45.0859686 43.6540885,49.4534058 35.6302536,51.375 C35.4653364,51.4148262 39.2378992,47.7069033 39.2378992,45.0859686 C39.2378992,43.3388757 39.28346,20.8610692 39.2378992,19.9305459 C39.1750124,18.649305 37.7189918,18.125 37.7189918,18.125 L45.25,18.125 Z M50.8381902,39.959544 C50.8972393,41.2299068 52.25,41.75 52.25,41.75 L45.25,41.75 C45.25,41.75 46.6618098,41.1719234 46.6618098,39.959544 L46.6689673,39.959544 C46.6785106,32.7988912 46.692229,20.5843146 46.6618098,19.915456 C46.6027607,18.6445075 45.25,18.125 45.25,18.125 L52.25,18.125 C52.25,18.125 50.8381902,18.7024909 50.8381902,19.915456 L50.8381902,39.9015606 L50.8381902,39.959544 Z M64.0409054,20.7822781 L64.0409054,39.9021463 L64.0409054,39.9601297 C64.0988815,41.2304925 65.4270614,41.75 65.4270614,41.75 L58.5542574,41.75 C58.5542574,41.75 59.9404134,41.1725091 59.9404134,39.9601297 L59.9474409,39.9601297 C59.9556395,33.8086217 59.9667662,23.869453 59.9509546,20.7822781 L55.3778695,20.7822781 C53.9337374,20.7822781 53.125,22.3999554 53.125,22.3999554 L54.5117416,18.125 L70.625,18.125 L69.6429199,22.0532266 C69.6429199,22.0532266 69.5855294,20.7822781 68.199959,20.7822781 L64.0409054,20.7822781 Z M83.2062317,22.0665997 C82.5340379,21.3452112 81.5592328,20.5072998 78.8028662,20.5072998 C76.8458148,20.5072998 74.2165697,22.2399203 74.2165697,24.3185965 C74.2165697,26.91782 78.0333159,28.3143391 79.0174225,28.7652069 C80.0877237,29.2564771 85.5,31.0464808 85.5,36.0417447 C85.5,42.625 76.693269,42.625 75.6533529,42.625 C73.4147739,42.625 70.7613447,41.9896863 70.7613447,41.9896863 C70.7613447,41.9896863 69.7003451,37.7895893 69.7518138,37.8317484 C70.4215272,38.3745463 72.8095515,40.170991 75.7451285,40.170991 C78.6807055,40.170991 81.1270196,38.8137033 81.1270196,36.0991278 C81.1270196,34.0210372 76.9989807,32.2884167 76.2653965,31.9417755 C75.5311922,31.5951342 69.9049797,29.6031183 69.9049797,24.5498858 C69.9049797,18.3987609 77.3512004,18.1136017 78.6348177,18.1253125 C80.4089381,18.1417077 83.2062317,18.7465732 83.2062317,19.1505976 L83.2062317,22.0665997 Z M44.0420223,10.7138526 L44.0008264,10.6421931 C43.3097182,9.31735259 42.132252,8.48495603 40.6959277,8.48495603 C38.7535696,8.48495603 37.1795155,9.95254224 37.1795155,11.7629474 C37.1795155,13.5733526 38.7535696,15.0409388 40.6959277,15.0409388 C41.5880966,15.0409388 42.4944074,14.702706 43.1141912,14.3042793 L45.1881304,12.6956672 L45.1881304,15.1028526 C44.1348669,16.3325293 42.5140831,17.1196371 40.6959277,17.1196371 C37.5219953,17.1196371 34.9500155,14.7216241 34.9500155,11.7629474 C34.9500155,8.80369741 37.5219953,6.40568448 40.6959277,6.40568448 C42.9254277,6.40568448 44.8585628,7.67491724 45.8103736,9.32136552 L46.031725,9.71749914 C46.8790088,10.9592147 48.3380831,11.8116759 50.0344953,11.8116759 C52.6722655,11.8116759 54.8107655,9.81782241 54.8107655,7.35789569 C54.8107655,4.89796897 52.6716507,2.97061552 50.0344953,2.90354224 C47.8031507,2.84736121 45.0633128,4.17793448 44.8425764,6.53065862 L44.7952318,3.10017586 C46.068002,1.73749914 47.9433399,0.876438793 50.0344953,0.876438793 C53.8706372,0.876438793 56.9800088,3.77549483 56.9800088,7.35273621 C56.9800088,10.9294043 53.8706372,13.8296069 50.0344953,13.8296069 C47.3930358,13.8296069 44.9139007,12.4829819 44.0420223,10.7138526 Z" id="Fujitsu"></path>
                </g>
            </g>
        </g>
    </g>
</svg>