<?xml version="1.0" encoding="UTF-8"?>
<svg width="104px" height="36px" viewBox="0 0 104 36" version="1.1" xmlns="http://www.w3.org/2000/svg" xmlns:xlink="http://www.w3.org/1999/xlink">
    <!-- Generator: Sketch 55.1 (78136) - https://sketchapp.com -->
    <title>Logo/Trust/Ikea</title>
    <desc>Created with Sketch.</desc>
    <g id="Mockups" stroke="none" stroke-width="1" fill="none" fill-rule="evenodd">
        <g id="SGOvercast-Overview" transform="translate(-1326.000000, -872.000000)" fill="#B7BBC5">
            <g id="Trust" transform="translate(240.000000, 813.000000)">
                <g id="Logo/Trust/Ikea" transform="translate(1086.000000, 59.000000)">
                    <path d="M103.75,15.9415196 C101.122642,7.33264911 79.2916164,0.615054545 52.7511865,0.615054545 C24.4391497,0.615054545 1.48724479,8.25905455 1.48724479,17.6886909 C1.48724479,27.1176909 24.4391497,34.7616909 52.7511865,34.7616909 C79.2916164,34.7616909 101.122642,28.0440963 103.75,19.4357501 L103.75,35.9375 L0.5,35.9375 L0.5,0.0625 L103.75,0.0625 L103.75,15.9415196 Z M24.4646138,24.7805818 L15.7320709,24.7805818 C15.489465,24.7805818 15.3925494,24.6832182 15.5217702,24.5362182 C15.6231199,24.4216727 15.7973147,23.6408545 15.7973147,22.8110364 L15.7973147,13.1109455 C15.7973147,12.2804909 15.6231199,11.5003091 15.5217702,11.3857636 C15.3925494,11.2387636 15.489465,11.1414 15.7320709,11.1414 L24.4646138,11.1414 C24.7078531,11.1414 24.8047687,11.2387636 24.6755479,11.3857636 C24.5735647,11.5003091 24.3993699,12.2804909 24.3993699,13.1109455 L24.3993699,22.8110364 C24.3993699,23.6408545 24.5735647,24.4216727 24.6755479,24.5362182 C24.8047687,24.6832182 24.7078531,24.7805818 24.4646138,24.7805818 Z M37.6118227,16.0100909 L40.789769,11.6783636 C40.9196233,11.5479091 40.8543794,11.3690909 40.8543794,11.2876364 C40.8543794,11.2061818 40.8543794,11.1412727 40.9196233,11.1412727 L49.5381479,11.1412727 C49.6515328,11.1412727 49.6033917,11.2227273 49.5546172,11.2876364 L46.006111,16.2678182 C45.844585,16.4797273 45.8768902,16.6750909 46.0390497,16.887 L50.9152368,24.6340909 C50.9640113,24.699 51.0121525,24.7804545 50.8994009,24.7804545 L40.3685344,24.7804545 C40.3039239,24.7804545 40.3039239,24.7149091 40.3039239,24.6340909 C40.3039239,24.5526364 40.46545,23.8526364 40.3362291,23.7221818 L37.6143564,19.5380909 L37.6143564,22.8115455 C37.6143564,23.6407273 37.7879178,24.4215455 37.8899009,24.5360909 C38.0197552,24.6830909 37.9222061,24.7804545 37.6789669,24.7804545 L29.2061325,24.7804545 C28.9635267,24.7804545 28.8659776,24.6830909 28.9958319,24.5360909 C29.0971816,24.4215455 29.2713764,23.6407273 29.2713764,22.8115455 L29.2713764,13.1108182 C29.2713764,12.2803636 29.0971816,11.5001818 28.9958319,11.3856364 C28.8659776,11.2386364 28.9635267,11.1412727 29.2061325,11.1412727 L37.6789669,11.1412727 C37.9222061,11.1412727 38.0197552,11.2386364 37.8899009,11.3856364 C37.7879178,11.5001818 37.6143564,12.2803636 37.6143564,13.1108182 L37.6118227,16.0100909 Z M62.0615494,19.7164 L62.060916,20.4647636 C62.060916,20.5194909 62.0818193,20.7097636 62.3047887,20.7097636 L67.1233331,20.7097636 C67.9410985,20.7097636 68.7094558,20.5366727 68.8234742,20.4354909 C68.9666307,20.3069455 69.0635463,20.4036727 69.0635463,20.6448545 L69.0635463,24.6596727 L53.8826291,24.6603091 C53.6425571,24.6603091 53.5469083,24.5635818 53.6754957,24.4191273 C53.7755785,24.3052182 53.9472396,23.5326727 53.9472396,22.7117636 L53.9472396,13.1134909 C53.9472396,12.2919455 53.7755785,11.5200364 53.6754957,11.4061273 C53.5469083,11.2610364 53.6431905,11.1394909 53.8832626,11.1394909 L69.0641798,11.1394909 L69.0641798,14.9182182 C69.0641798,15.1594 68.9678975,15.2561273 68.8241077,15.1275818 C68.7107227,15.0264 67.9417319,14.8533091 67.1246,14.8533091 L62.3054221,14.8533091 C62.0824528,14.8533091 62.0615494,15.0442182 62.0615494,15.0983091 L62.060916,15.7607636 C62.060916,15.8148545 62.0818193,16.0051273 62.3047887,16.0051273 L65.6581966,16.0051273 C66.0046859,16.0051273 67.2500202,16.0477636 67.3564374,15.9402182 C67.4641215,15.8326727 67.5971429,15.8994909 67.5971429,16.1044 L67.5971429,19.3734 C67.5971429,19.5776727 67.4641215,19.6451273 67.3570709,19.5369455 C67.2500202,19.4294 66.0046859,19.4720364 65.6581966,19.4720364 L62.3047887,19.4720364 C62.0818193,19.4720364 62.0615494,19.6623091 62.0615494,19.7164 Z M80.2536293,19.4951364 L81.8714238,19.4951364 C81.9835419,19.4855909 81.9974775,19.3672273 81.9651722,19.2857727 L81.1797121,17.4155 C81.1480403,17.3614091 81.1303041,17.3066818 81.0618931,17.3066818 C80.9947489,17.3066818 80.9770127,17.3614091 80.9447075,17.4155 L80.1592474,19.2857727 C80.1269422,19.3672273 80.1402443,19.4855909 80.2536293,19.4951364 Z M93.1168057,24.6598636 L84.0441078,24.6598636 C83.8724468,24.6598636 83.836341,24.5784091 83.890183,24.4606818 C83.9446584,24.3423182 83.9446584,24.0699545 83.8635787,23.8701364 L83.4746492,22.5725909 C83.3485956,22.2092273 83.1680664,22.1551364 82.8602167,22.1551364 L79.6708686,22.1551364 C79.3636523,22.1551364 79.1831232,22.2092273 79.0558026,22.5725909 L78.6675066,23.8701364 C78.5864268,24.0699545 78.5864268,24.3423182 78.6402689,24.4606818 C78.6947443,24.5784091 78.6586385,24.6598636 78.4869775,24.6598636 L71.2309729,24.6598636 C71.2309729,24.6598636 75.6947934,12.6224091 75.7670051,12.4225909 C75.8392167,12.2234091 75.9114284,11.8785 75.7847413,11.5692273 C75.6586876,11.2612273 75.7670051,11.1886818 75.98364,11.1886818 L87.7858118,11.1886818 C88.0018133,11.1886818 88.1107643,11.2612273 87.9840771,11.5692273 C87.8580235,11.8785 87.9296017,12.2234091 88.0018133,12.4225909 C88.0746584,12.6224091 93.1168057,24.6598636 93.1168057,24.6598636 Z" id="Ikea"></path>
                </g>
            </g>
        </g>
    </g>
</svg>