<?xml version="1.0" encoding="UTF-8"?>
<svg width="57px" height="45px" viewBox="0 0 57 45" version="1.1" xmlns="http://www.w3.org/2000/svg" xmlns:xlink="http://www.w3.org/1999/xlink">
    <!-- Generator: Sketch 55.1 (78136) - https://sketchapp.com -->
    <title>Logo/Trust/McDo</title>
    <desc>Created with Sketch.</desc>
    <g id="Mockups" stroke="none" stroke-width="1" fill="none" fill-rule="evenodd">
        <g id="SGOvercast-Overview" transform="translate(-454.000000, -867.000000)" fill="#B7BBC5" fill-rule="nonzero">
            <g id="Trust" transform="translate(240.000000, 813.000000)">
                <g id="Logo/Trust/McDo" transform="translate(214.000000, 54.000000)">
                    <path d="M37.3416875,3.5824375 C41.7168125,3.5824375 45.264125,22.0279375 45.264125,44.7818125 L51.6035,44.7818125 C51.6035,20.2770625 45.2174375,0.41275 37.341875,0.41275 C32.8608125,0.41275 28.8629375,6.38275 26.2488125,15.7181875 C23.63525,6.38275 19.6360625,0.41275 15.155375,0.41275 C7.2798125,0.41275 0.893,20.2770625 0.893,44.7818125 L7.233125,44.7818125 C7.233125,22.0279375 10.7808125,3.5824375 15.155375,3.5824375 C19.53125,3.5824375 23.079875,20.609125 23.079875,41.6138125 L29.41775,41.6138125 C29.4179375,20.609125 32.9654375,3.5824375 37.3416875,3.5824375 L37.3416875,3.5824375 Z M54.7765625,41.6138125 C55.6364375,41.6138125 56.3571875,42.294625 56.3571875,43.1903125 C56.3571875,44.10025 55.6364375,44.7814375 54.7765625,44.7814375 C53.9136875,44.7814375 53.1869375,44.099875 53.1869375,43.1903125 C53.1869375,42.294625 53.9136875,41.6138125 54.7765625,41.6138125 L54.7765625,41.6138125 Z M54.7765625,44.55025 C55.5048125,44.55025 56.0703125,43.9650625 56.0703125,43.190875 C56.0703125,42.4301875 55.5044375,41.84575 54.7765625,41.84575 C54.0393125,41.84575 53.474375,42.4301875 53.474375,43.190875 C53.4741875,43.964875 54.0393125,44.55025 54.7765625,44.55025 Z M54.16025,42.2704375 L54.8744375,42.2704375 C55.3115,42.2704375 55.5175625,42.4444375 55.5175625,42.7991875 C55.5175625,43.133875 55.3086875,43.27375 55.0349375,43.3028125 L55.5606875,44.121625 L55.2520625,44.121625 L54.7510625,43.325125 L54.4480625,43.325125 L54.4480625,44.121625 L54.160625,44.121625 L54.16025,42.2704375 L54.16025,42.2704375 Z M54.447875,43.0928125 L54.7473125,43.0928125 C54.9995,43.0928125 55.2318125,43.08025 55.2318125,42.7868125 C55.2318125,42.540625 55.0210625,42.502 54.827375,42.502 L54.44825,42.502 L54.447875,43.0928125 Z" id="Mcdo"></path>
                </g>
            </g>
        </g>
    </g>
</svg>