<?xml version="1.0" encoding="UTF-8"?>
<svg width="125px" height="27px" viewBox="0 0 125 27" version="1.1" xmlns="http://www.w3.org/2000/svg" xmlns:xlink="http://www.w3.org/1999/xlink">
    <!-- Generator: Sketch 55.1 (78136) - https://sketchapp.com -->
    <title>Logo/Trust/Microsoft</title>
    <desc>Created with Sketch.</desc>
    <g id="Mockups" stroke="none" stroke-width="1" fill="none" fill-rule="evenodd">
        <g id="SGOvercast-Overview" transform="translate(-240.000000, -876.000000)" fill="#B7BBC5" fill-rule="nonzero">
            <g id="Trust" transform="translate(240.000000, 813.000000)">
                <g id="Logo/Trust/Microsoft" transform="translate(0.000000, 63.000000)">
                    <path d="M124.219598,12.4344744 L121.506767,12.4344744 L121.506767,17.8108704 C121.506767,18.4998931 121.630416,18.9924471 121.874109,19.2741124 C122.115039,19.5532544 122.50341,19.6946879 123.028288,19.6946879 C123.167919,19.6946879 123.348166,19.6642863 123.563981,19.6036032 C123.778835,19.5440017 123.962086,19.463852 124.109287,19.3657979 L124.219598,19.2928581 L124.219598,21.4976347 L124.18391,21.5187836 C124.022409,21.6113102 123.748073,21.6979487 123.345282,21.7847074 C122.949581,21.869183 122.562051,21.9123221 122.193867,21.9123221 C119.953161,21.9123221 118.817007,20.691692 118.817007,18.2829964 L118.817007,12.4344744 L114.795224,12.4344744 L114.795224,21.6377464 L112.083474,21.6377464 L112.083474,12.4344744 L110.194489,12.4344744 L110.194489,10.2498854 L112.083474,10.2498854 L112.083474,8.67380899 C112.083474,7.88192553 112.258313,7.16634647 112.602824,6.54677877 C112.948537,5.92649009 113.442052,5.43862258 114.069431,5.096875 C114.696449,4.75560808 115.415392,4.58341248 116.206675,4.58341248 C116.834534,4.58341248 117.341027,4.65082471 117.713417,4.78468786 L117.760521,4.80199154 L117.760521,7.10265933 L117.660424,7.05795817 C117.261238,6.87999468 116.864575,6.78975121 116.481491,6.78975121 C115.948562,6.78975121 115.53075,6.96086533 115.238631,7.29744584 C114.944468,7.63811194 114.795224,8.14893085 114.795224,8.81644415 L114.795224,10.2500056 L118.817007,10.2500056 L118.817007,7.67668472 L118.867235,7.66142384 L121.415322,6.88179715 L121.506647,6.85367868 L121.506647,10.2498854 L124.219598,10.2498854 L124.219598,12.4344744 Z M104.138684,19.6950484 C105.128718,19.6950484 105.885994,19.37469 106.389603,18.7440672 C106.896697,18.1086378 107.153849,17.1587382 107.153849,15.9221262 C107.153849,14.7005348 106.880355,13.7630121 106.341537,13.1347926 C105.805364,12.5098175 105.05686,12.1931842 104.116573,12.1931842 C103.147567,12.1931842 102.378996,12.5247178 101.831767,13.1779316 C101.281294,13.8354712 101.002513,14.7805643 101.002513,15.9880965 C101.002513,17.1584978 101.281294,18.0796782 101.831527,18.7258022 C102.378395,19.3686818 103.154417,19.6950484 104.138684,19.6950484 Z M104.259208,9.97555005 C106.028149,9.97555005 107.431188,10.5018702 108.428673,11.5402108 C109.425677,12.5780708 109.930969,14.0229277 109.930969,15.8338054 C109.930969,17.6671538 109.392512,19.1549093 108.329658,20.253933 C107.266683,21.3541584 105.804883,21.9120817 103.984633,21.9120817 C102.237803,21.9120817 100.825871,21.3826373 99.7883714,20.3374473 C98.7508719,19.2926177 98.2249122,17.8584555 98.2249122,16.075456 C98.2249122,14.1982476 98.7637294,12.6963126 99.8264635,11.6109877 C100.889919,10.5257829 102.381399,9.97555005 104.259208,9.97555005 Z M93.8527302,9.97555005 C94.243625,9.97555005 94.6930399,10.0219335 95.1884778,10.1138593 C95.6861987,10.2063859 96.0959594,10.3204219 96.4067045,10.4536842 L96.4492427,10.4719492 L96.4492427,12.9485377 L96.3384512,12.8728341 C96.0016303,12.6436806 95.5981182,12.4563443 95.1387297,12.3164729 C94.6789807,12.1766015 94.2167082,12.1052239 93.76489,12.1052239 C93.2779838,12.1052239 92.8897326,12.2150542 92.610831,12.4309896 C92.3340924,12.6458436 92.1992679,12.9111666 92.1992679,13.2423397 C92.1992679,13.6159309 92.3084973,13.9109345 92.5235916,14.1195399 C92.7467369,14.3354753 93.287597,14.6167802 94.1318721,14.9556439 C95.191602,15.3829485 95.9514016,15.8663699 96.3891605,16.3929304 C96.8299236,16.9238167 97.0535496,17.5820774 97.0535496,18.3496876 C97.0535496,19.4137435 96.6381412,20.2837338 95.8184998,20.9362265 C95.0040254,21.5842732 93.8878182,21.9125624 92.5017217,21.9125624 C92.0525471,21.9125624 91.5354797,21.8527205 90.966381,21.7350795 C90.3962009,21.6175588 89.912419,21.4681944 89.528734,21.2910721 L89.4873975,21.2718457 L89.4873975,18.6610336 L89.5999915,18.7417841 C90.0636112,19.0746499 90.5756426,19.3342726 91.1181487,19.5115573 C91.6645363,19.6915636 92.1633387,19.7828885 92.600617,19.7828885 C93.77955,19.7828885 94.352494,19.4106192 94.352494,18.6455324 C94.352494,18.3768448 94.2960167,18.1591069 94.1846243,18.0000092 C94.0699874,17.8374267 93.8670297,17.6705184 93.5810384,17.5044512 C93.2884381,17.3350193 92.8278479,17.1200452 92.2102029,16.8658975 C91.4755176,16.5502256 90.9210791,16.2399611 90.5619076,15.9437558 C90.1999724,15.6451472 89.9275597,15.2893404 89.7515189,14.8852275 C89.5765595,14.4824364 89.4876378,14.0075467 89.4876378,13.4729352 C89.4876378,12.444448 89.8995614,11.5945251 90.7116325,10.9464785 C91.5187768,10.3022771 92.5753825,9.97555005 93.8527302,9.97555005 Z M82.4182454,19.6950484 C83.4086405,19.6950484 84.1655561,19.37469 84.6691651,18.7440672 C85.1762589,18.1086378 85.4335309,17.1587382 85.4335309,15.9221262 C85.4335309,14.7005348 85.1601569,13.7630121 84.6212195,13.1347926 C84.0849258,12.5098175 83.3364217,12.1931842 82.3964956,12.1931842 C81.4270092,12.1931842 80.6585578,12.5247178 80.1118097,13.1779316 C79.5612164,13.8354712 79.2825551,14.7805643 79.2825551,15.9880965 C79.2825551,17.1587382 79.5608559,18.0796782 80.1112089,18.7258022 C80.657957,19.3686818 81.4342191,19.6950484 82.4182454,19.6950484 Z M82.5391308,9.97555005 C84.3077106,9.97555005 85.7105099,10.5018702 86.708235,11.5402108 C87.7054794,12.5780708 88.210891,14.0229277 88.210891,15.8338054 C88.210891,17.6671538 87.6721939,19.1549093 86.60958,20.253933 C85.5466057,21.3541584 84.0844451,21.9120817 82.264435,21.9120817 C80.5176049,21.9120817 79.1057933,21.3826373 78.0682938,20.3374473 C77.0307942,19.2926177 76.5044741,17.8591765 76.5044741,16.075456 C76.5044741,14.1982476 77.0436518,12.6963126 78.1063859,11.6109877 C79.1692401,10.5257829 80.6608409,9.97555005 82.5391308,9.97555005 Z M72.3881221,12.2220237 L72.4166011,12.2220237 C72.6669035,11.582028 72.9942314,11.0688059 73.447131,10.6944937 C73.963117,10.268631 74.5655012,10.0523351 75.2386622,10.0523351 C75.6851932,10.0523351 76.0381161,10.1058083 76.2875774,10.2117933 L76.3309567,10.2304188 L76.3309567,12.9309937 L76.2183627,12.8494021 C76.094353,12.7599998 75.8840653,12.6750435 75.5937481,12.5968165 C75.3004267,12.5181088 75.0295762,12.4783344 74.788286,12.4783344 C74.0764321,12.4783344 73.4933943,12.7860754 73.0558757,13.3933864 C72.6127094,14.0080273 72.3881221,14.8217807 72.3881221,15.8122959 L72.3881221,21.637506 L69.7094171,21.637506 L69.7094171,10.2498854 L72.3881221,10.2498854 L72.3881221,12.2220237 Z M64.9123337,9.97555005 C65.3909485,9.97555005 65.8946777,10.0293837 66.4097024,10.1362099 C66.92689,10.2432764 67.3435,10.3844695 67.6489579,10.5554635 L67.6852476,10.5758914 L67.6852476,13.1617094 L67.5728939,13.0801177 C66.7611833,12.4913121 65.9032094,12.1931842 65.0227647,12.1931842 C63.9934364,12.1931842 63.1480798,12.5421417 62.5103673,13.2300829 C61.8707321,13.920067 61.546168,14.8551864 61.546168,16.0096059 C61.546168,17.1568155 61.8573939,18.0685029 62.4711937,18.7177512 C63.0836717,19.3661584 63.9274662,19.6950484 64.9785442,19.6950484 C65.3570621,19.6950484 65.7886927,19.6115341 66.2621405,19.446308 C66.7367899,19.2809618 67.1779134,19.0514478 67.5726535,18.7638943 L67.6852476,18.6817019 L67.6852476,21.1358196 L67.6500394,21.1560073 C66.7786071,21.657934 65.69172,21.9124422 64.4186983,21.9124422 C63.3278457,21.9124422 62.3426177,21.6729545 61.4901714,21.2005882 C60.6365235,20.7276211 59.9621608,20.0456881 59.4857089,19.1740155 C59.0094973,18.3037848 58.7685677,17.3163939 58.7685677,16.2404417 C58.7685677,15.0121211 59.0170677,13.9106941 59.5064973,12.967764 C59.9980899,12.0225508 60.7206385,11.2792137 61.6549168,10.7585413 C62.5872725,10.2390706 63.6834122,9.97555005 64.9123337,9.97555005 Z M56.9236835,10.2500056 L56.9236835,21.637506 L54.2449785,21.637506 L54.2449785,10.2500056 L56.9236835,10.2500056 Z M55.6117285,5.39884816 C56.0754429,5.39884816 56.4674192,5.55337959 56.7763619,5.85835687 C57.085545,6.16393496 57.2424797,6.53560348 57.2424797,6.96326862 C57.2424797,7.39958559 57.0812191,7.76812984 56.763264,8.05892771 C56.4473518,8.34792311 56.0601821,8.49464386 55.6118486,8.49464386 C55.1633951,8.49464386 54.7776673,8.34792311 54.4654802,8.05844705 C54.1512502,7.76812984 53.9922727,7.39946543 53.9922727,6.96326862 C53.9922727,6.52010227 54.1531729,6.14458849 54.4704069,5.84634043 C54.7863191,5.54893351 55.1708453,5.39884816 55.6117285,5.39884816 Z M48.928184,9.40981601 L48.8399833,9.40981601 L43.9885856,21.637506 L42.049853,21.637506 L37.12155,9.40861436 L37.0333494,9.40861436 L37.0333494,21.637506 L34.4643544,21.637506 L34.4643544,5.74744512 L38.402022,5.74744512 L43.0690875,17.5501136 L47.8783075,5.74744512 L51.6619243,5.74744512 L51.6619243,21.637506 L48.928184,21.637506 L48.928184,9.40981601 Z M12.6014014,13.0389014 L5.4534155e-13,13.0389014 L5.4534155e-13,0.4375 L12.6014014,0.4375 L12.6014014,13.0389014 Z M26.5147577,13.0389014 L13.9135967,13.0389014 L13.9135967,0.4375 L26.5147577,0.4375 L26.5147577,13.0389014 Z M12.6010409,26.9571845 L4.47641924e-13,26.9571845 L4.47641924e-13,14.3559033 L12.6010409,14.3559033 L12.6010409,26.9571845 Z M26.5147577,26.9571845 L13.9135967,26.9571845 L13.9135967,14.3559033 L26.5147577,14.3559033 L26.5147577,26.9571845 Z" id="Microsoft"></path>
                </g>
            </g>
        </g>
    </g>
</svg>