<?xml version="1.0" encoding="UTF-8"?>
<svg width="77px" height="45px" viewBox="0 0 77 45" version="1.1" xmlns="http://www.w3.org/2000/svg" xmlns:xlink="http://www.w3.org/1999/xlink">
    <!-- Generator: Sketch 55.1 (78136) - https://sketchapp.com -->
    <title>Logo/Trust/MontBlanc</title>
    <desc>Created with Sketch.</desc>
    <g id="Mockups" stroke="none" stroke-width="1" fill="none" fill-rule="evenodd">
        <g id="SGOvercast-Overview" transform="translate(-1165.000000, -864.000000)" fill="#B7BBC5" fill-rule="nonzero">
            <g id="Trust" transform="translate(240.000000, 813.000000)">
                <g id="Logo/Trust/MontBlanc" transform="translate(925.000000, 51.000000)">
                    <path d="M13.125,29.5 L17.7391532,29.5 L17.7391532,40.7531149 L21,40.7531149 L21,44.375 L13.125,44.375 L13.125,29.5 Z M27.1458703,29.5 L28.9116236,29.5 L35,44.375 L30.5150141,44.375 L27.9126092,38.1057769 L25.3097444,44.375 L21,44.375 L27.1458703,29.5 Z M43.3150847,29.5 L47.25,29.5 L47.25,44.375 L45.9345371,44.375 L38.9459474,37.6593363 L38.9459474,44.375 L35,44.375 L35,29.5 L36.4597622,29.5 L43.3150847,36.1575901 L43.3150847,29.5 Z M59.8852311,40.3986662 L59.8852311,43.8621327 C58.9753778,44.1810116 58.0892281,44.3749549 57.1219391,44.3749549 C52.3894257,44.3749549 48.5781615,41.298924 48.5781615,36.4683827 C48.5781615,34.2466044 49.6375297,32.0938338 51.387493,30.6807539 C53.0111891,29.3592332 55.2106091,28.8468621 57.2833059,28.8468621 C58.1694556,28.8468621 59.0332692,28.9722487 59.8852311,29.2112951 L59.4011308,32.7428673 C58.7793673,32.5606508 58.1580597,32.4352642 57.5130484,32.4352642 C54.8992715,32.4352642 52.5621884,33.7793363 52.5621884,36.6054961 C52.5621884,39.3960245 54.8764796,40.7861018 57.5016525,40.7861018 C58.3189706,40.7861018 59.1021008,40.6268879 59.8852311,40.3986662 Z M0.875091168,26.5682088 L0.875091168,11.7459794 L2.42949985,11.7459794 L8.94616452,19.6755541 L15.5211765,11.7459794 L17.0062978,11.7459794 L17.0062978,26.5682088 L12.7925283,26.5682088 L12.7925283,21.3046778 L8.94616452,26.0328351 L5.07792051,21.3046778 L5.07792051,26.5682088 L0.875091168,26.5682088 Z M34.7611549,26.5682088 L34.7611549,11.7459794 L36.2923158,11.7459794 L43.3509722,18.3540335 L43.3509722,11.7459794 L47.4156826,11.7459794 L47.4156826,26.5682088 L46.0682245,26.5682088 L38.8372612,19.8464948 L38.8372612,26.5682088 L34.7611549,26.5682088 Z M52.5735388,26.5682088 L52.5735388,15.6537113 L48.9122454,15.6537113 L48.9122454,11.7459794 L60.2990867,11.7459794 L60.2990867,15.6537113 L56.534318,15.6537113 L56.534318,26.5682088 L52.5735388,26.5682088 Z M5.26185127,37.9153351 L5.26185127,40.3987113 L6.54002193,40.3987113 C7.21922103,40.3987113 7.91027193,39.8633376 7.91027193,39.1565722 C7.91027193,38.4507088 7.21922103,37.9153351 6.54002193,37.9153351 L5.26185127,37.9153351 Z M5.26185127,32.4127577 L5.26185127,34.7026418 L6.52862597,34.7026418 C7.1617854,34.7026418 7.87562822,34.2466495 7.87562822,33.5516108 C7.87562822,32.868299 7.1617854,32.4127577 6.52862597,32.4127577 L5.26185127,32.4127577 Z M0.874863249,43.9988402 L0.874863249,29.2113402 L7.20782507,29.2113402 C9.49886849,29.2113402 11.6754965,30.7268041 11.6754965,33.1641753 C11.6754965,34.5547036 11.1111686,35.4770619 10.0859882,36.3313144 C11.1686043,37.2202964 12.0324179,38.3023196 12.0324179,39.7722294 C12.0324179,40.9570876 11.4448423,42.0738402 10.5468408,42.8257088 C9.28052193,43.907732 7.68007358,43.9988402 6.06777343,43.9988402 L0.874863249,43.9988402 Z M25.9989394,14.9589884 C23.8346191,14.9589884 22.4643691,17.1009343 22.4643691,19.0602126 C22.4643691,21.0312178 23.8346191,23.1731637 25.9989394,23.1731637 C28.1637156,23.1731637 29.5339656,21.0312178 29.5339656,19.0602126 C29.5339656,17.1009343 28.1637156,14.9589884 25.9989394,14.9589884 Z M26.0563751,11.1996456 C30.2819963,11.1996456 33.3912695,14.9932668 33.3912695,19.0146585 C33.3912695,23.0252255 30.2819963,26.8301224 26.0563751,26.8301224 C21.8307538,26.8301224 18.7219365,23.0365013 18.7219365,19.0146585 C18.7219365,14.9932668 21.8307538,11.1996456 26.0563751,11.1996456 Z M61.5946248,8.48489046 C61.5946248,4.321875 65.0216173,0.946810567 69.2490619,0.946810567 C73.4765065,0.946810567 76.903499,4.321875 76.903499,8.48489046 C76.903499,12.6479059 73.4765065,16.0229704 69.2490619,16.0229704 C65.0216173,16.0229704 61.5946248,12.6479059 61.5946248,8.48489046 Z M75.177604,5.10283505 C74.3666676,3.71411082 72.6217185,4.53814433 71.8349415,4.08215206 C71.1443465,3.68253866 70.8963704,1.71965206 69.2699393,1.71965206 C67.627098,1.71965206 67.4958165,3.64465206 66.7131421,4.09478093 C65.9295561,4.54445876 64.2169715,3.6744201 63.3645538,5.10328608 C62.5121362,6.53260309 64.1476841,7.34626289 64.1476841,8.47789948 C64.1476841,9.60863402 62.5303697,10.4114691 63.3691122,11.8484536 C64.2078547,13.2854381 65.9473338,12.4298325 66.7094954,12.8646263 C67.4721129,13.3003222 67.5919984,15.2208119 69.2699393,15.2208119 C70.9474243,15.2208119 71.1871953,13.2114691 71.8276481,12.8619201 C72.4986421,12.4965851 74.3151579,13.3039304 75.1739573,11.8507088 C76.0323008,10.3979381 74.3921945,9.38582474 74.3921945,8.48962629 C74.3921945,7.34626289 76.0341242,6.57094072 75.177604,5.10283505 Z" id="MontBlanc"></path>
                </g>
            </g>
        </g>
    </g>
</svg>