<?xml version="1.0" encoding="UTF-8"?>
<svg width="32px" height="32px" viewBox="0 0 32 32" version="1.1" xmlns="http://www.w3.org/2000/svg" xmlns:xlink="http://www.w3.org/1999/xlink">
    <!-- Generator: Sketch 55.2 (78181) - https://sketchapp.com -->
    <title>Icon/Recommendations</title>
    <desc>Created with Sketch.</desc>
    <g id="Icon/Recommendations" stroke="none" stroke-width="1" fill="none" fill-rule="evenodd">
        <path d="M26.3572,6.4872 C24.0522,3.3542 17.1982,2.6562 13.3542,3.2462 C7.3592,4.1652 4.8182,6.8712 3.1262,11.9902 C2.4772,13.9532 1.6982,17.3172 1.9962,19.3622 C2.7722,24.6942 7.8502,29.8162 13.0962,31.0402 C16.0912,31.7392 19.2902,31.7952 22.2002,30.8012 C27.6612,28.9362 31.4762,23.2502 31.4332,17.4792 C31.3912,11.7082 27.6692,6.2032 22.4562,3.7272" id="Fill" fill="#FCB736"></path>
        <path d="M16.7370054,10.5130968 C16.7955751,11.8357056 16.854119,13.1582888 16.9126586,14.4808676 C18.6739009,14.9069584 20.5864576,15.9429296 21.1567,17.749 C22.0038735,20.431245 19.8218119,21.7362166 17.2593853,22.3119618 C17.2884466,22.967831 17.3175173,23.6237095 17.3466,24.2796 C17.4036,25.5686 15.4036,25.5606 15.3466,24.2796 C15.3220777,23.7265579 15.2975639,23.1735244 15.2730571,22.6204978 C13.9421594,22.7474813 12.6891343,22.7248172 11.8757,22.641 C10.6057,22.511 10.5977,20.51 11.8757,20.641 C12.9816149,20.7546617 14.09009,20.7893826 15.186631,20.6696251 C15.120704,19.1810818 15.0548138,17.6925755 14.98893,16.2040754 C13.3716239,15.9932197 11.5811702,15.7154737 10.9187,13.971 C10.1617,11.977 11.7437,10.159 13.4147,9.326 C13.8219343,9.12266924 14.2390832,8.95925209 14.6626462,8.83426624 C14.6249804,7.98406045 14.5873003,7.13384027 14.5496,6.2836 C14.4916,4.9946 16.4926,5.0016 16.5496,6.2836 C16.582728,7.03072396 16.6158405,7.77783241 16.6489414,8.52492922 C17.8236415,8.49705535 19.005871,8.73280861 20.1267,9.203 C21.2977,9.694 20.7797,11.629 19.5947,11.132 C18.6998744,10.7564006 17.7140291,10.5161296 16.7370054,10.5130968 Z M14.7533343,10.8818456 C14.5303685,10.9728756 14.3120119,11.0821053 14.0997,11.211 C12.4707,12.2 12.8977,13.572 14.6727,14.165 C14.7470405,14.189921 14.8234427,14.2099653 14.9013902,14.226283 C14.8520465,13.1114789 14.8026988,11.9966707 14.7533343,10.8818456 Z M17.1688341,20.2677748 C18.2577598,19.9622833 19.9684196,19.4092846 18.7677,17.617 C18.4250237,17.1059724 17.7275544,16.7839908 17.0053895,16.5759384 C17.0598592,17.8065388 17.114335,19.0371451 17.1688341,20.2677748 Z M26.1336,3.8266 C26.9466,4.8126 25.5386,6.2346 24.7196,5.2416 C20.9516,0.6726 10.5976,1.0906 6.4036,4.7976 C4.1146,6.8186 3.1036,9.9796 2.4586,12.8686 C1.4936,17.1936 2.5496,20.8576 5.6506,24.0776 C11.6836,30.3446 22.6976,30.2586 27.4806,22.5426 C31.9806,15.2826 28.2856,6.3066 21.0216,2.6376 C19.8706,2.0566 20.8846,0.3316 22.0306,0.9106 C29.2966,4.5796 33.5386,13.2346 30.4416,21.0616 C27.6126,28.2046 20.5436,31.5486 13.1366,30.2956 C6.5286,29.1786 -0.2734,22.9396 0.0206,15.8376 C0.2656,9.9146 2.9146,3.2796 8.8366,1.1406 C13.8786,-0.6794 22.4136,-0.6834 26.1336,3.8266 Z" id="Fill" fill="#0E1C3D" fill-rule="nonzero"></path>
    </g>
</svg>