<?xml version="1.0" encoding="UTF-8"?>
<svg width="32px" height="32px" viewBox="0 0 32 32" version="1.1" xmlns="http://www.w3.org/2000/svg" xmlns:xlink="http://www.w3.org/1999/xlink">
    <!-- Generator: Sketch 55.2 (78181) - https://sketchapp.com -->
    <title>Icon/Reports</title>
    <desc>Created with Sketch.</desc>
    <g id="Icon/Reports" stroke="none" stroke-width="1" fill="none" fill-rule="evenodd">
        <path d="M25.5135,30.0931 L7.7955,30.0461 C7.0275,30.0421 6.4175,29.3971 6.4585,28.6291 C6.8265,21.8911 6.5705,10.9111 6.4635,7.0741 C6.4425,6.3191 7.0435,5.6961 7.7975,5.6911 C14.0555,5.6551 20.4605,5.6181 26.7175,5.58208015 C27.4615,5.5781 28.0675,6.1791 28.0715,6.9241 C28.0875,10.7271 28.0605,14.5311 27.9885,18.3341 L28.0255,28.2591 C28.0255,28.2591 28.5825,30.8761 25.5135,30.0931" id="Fill" fill="#FCB736"></path>
        <path d="M23.1414,26.7211 C24.4304,26.7241 24.4284,28.7241 23.1414,28.7211 C17.7684,28.7061 12.3944,28.6921 7.0214,28.6781 C5.2824,28.6731 3.4814,28.6821 3.1224,26.5221 C2.7874,24.5011 3.2424,22.0871 3.2634,20.0281 C3.2884,17.6631 3.2794,15.2981 3.2524,12.9331 C3.2284,10.7521 3.1884,8.5721 3.1354,6.3921 C3.1074,5.2541 2.8754,3.9221 3.7604,3.0221 C5.1814,1.5751 8.3374,2.3021 10.1424,2.2921 C12.9894,2.2761 15.8354,2.2591 18.6824,2.2431 C20.5824,2.2321 24.1794,1.4561 25.8044,2.7371 C27.3124,3.9251 26.7054,6.7461 26.7014,8.3551 C26.6894,11.9001 26.6144,15.4421 26.6264,18.9871 C26.6324,20.5721 26.6384,22.1581 26.6454,23.7431 C26.6474,24.2961 26.6394,24.8511 26.6514,25.4051 C26.6544,25.5541 26.6274,26.0741 26.6244,25.6651 C26.6434,28.1261 25.4124,29.1691 22.8754,28.6851 C21.6104,28.4441 22.1494,26.5161 23.4074,26.7571 C25.0374,27.0681 24.6414,26.5121 24.6524,25.6091 C24.6624,24.6941 24.6454,23.7781 24.6414,22.8631 C24.6334,20.6301 24.6044,18.3971 24.6164,16.1641 C24.6254,14.3541 24.6714,12.5431 24.6874,10.7331 C24.7044,8.6031 25.5644,4.8061 22.9354,4.2191 C20.8244,3.7471 18.0084,4.2471 15.8354,4.2591 C13.6224,4.2721 11.4094,4.2841 9.1964,4.2971 C8.0244,4.3041 5.5914,3.9091 5.1064,5.2731 C4.9684,5.6611 5.1384,6.5021 5.1474,6.8991 C5.1804,8.3241 5.2084,9.7491 5.2304,11.1741 C5.2854,14.8581 5.3084,18.5451 5.2304,22.2291 C5.2104,23.1451 4.6694,26.1431 5.5374,26.6741 C5.7834,26.8241 6.6014,26.6771 6.8784,26.6781 C8.9374,26.6831 10.9964,26.6881 13.0554,26.6941 C16.4174,26.7031 19.7794,26.7121 23.1414,26.7211 Z M7.5145,11.618 C6.2255,11.654 6.2305,9.654 7.5145,9.618 C12.2125,9.486 16.9105,9.354 21.6085,9.222 C22.8985,9.185 22.8925,11.185 21.6085,11.222 C16.9105,11.354 12.2125,11.486 7.5145,11.618 Z M7.6541,17.723 C6.3651,17.761 6.3701,15.761 7.6541,15.723 C11.4611,15.612 15.2651,15.438 19.0711,15.327 C20.3611,15.289 20.3551,17.289 19.0711,17.327 C15.2651,17.438 11.4611,17.612 7.6541,17.723 Z" id="Fill" fill="#0E1C3D" fill-rule="nonzero"></path>
    </g>
</svg>