<?xml version="1.0" encoding="UTF-8"?>
<svg width="32px" height="32px" viewBox="0 0 32 32" version="1.1" xmlns="http://www.w3.org/2000/svg" xmlns:xlink="http://www.w3.org/1999/xlink">
    <!-- Generator: Sketch 55.2 (78181) - https://sketchapp.com -->
    <title>Icon/ResourceAdmin</title>
    <desc>Created with Sketch.</desc>
    <g id="Icon/ResourceAdmin" stroke="none" stroke-width="1" fill="none" fill-rule="evenodd">
        <path d="M26.9546667,29.18976 C26.9546667,29.18976 24.3264,31.86176 16.6858667,31.46496 C9.0464,31.06816 8.2528,28.1902933 8.2528,28.1902933 C8.40426667,24.83456 10.6954667,20.84416 13.7301333,19.40096 C16.7626667,17.9566933 20.5792,18.3268267 23.2810667,20.32576 C25.9808,22.3236267 27.4485333,25.8660267 26.9546667,29.18976 Z M16.3483733,18.0101333 C14.7643733,17.5269333 13.53024,16.0549333 13.3339733,14.4101333 C13.1355733,12.7664 13.9857067,11.0437333 15.4097067,10.2 C16.55424,9.5216 17.9707733,9.41066667 19.27744,9.66453333 C19.9089067,9.7872 20.5307733,9.992 21.0769067,10.3333333 C22.7921067,11.4032 23.4609067,13.8309333 22.61184,15.6645333 C21.7617067,17.4992 19.5505067,18.5562667 17.5707733,18.1498667 L16.3483733,18.0101333 Z" id="Fill" fill="#FCB736"></path>
        <path d="M19.9287824,16.8775157 C23.358269,18.3175672 25.7685177,21.5507412 26.2359662,25.3180466 C26.8801501,24.6262024 27.4600041,23.8438282 27.9602133,22.9693867 C32.14048,15.6616533 28.4359467,6.94592 21.2498133,3.30538667 C20.02208,2.68458667 21.10368,0.844586667 22.3250133,1.46432 C29.6231467,5.15925333 33.94528,13.8376533 30.89888,21.73952 C29.8467286,24.4682866 28.1757536,26.6675834 26.1000922,28.2827659 C25.9457614,28.5327118 25.7006467,28.6956384 25.434701,28.7710737 C22.0866512,31.0860623 17.8185889,31.9814231 13.43008,31.25312 C6.64394667,30.12672 -0.402453333,23.73952 0.03168,16.40832 C0.381546667,10.4936533 2.92554667,3.94218667 8.83594667,1.73738667 C13.96448,-0.17408 22.67808,-0.169813333 26.47968,4.41685333 C27.35008,5.46645333 25.8482133,6.98325333 24.9714133,5.92512 C21.2210133,1.40138667 11.04608,1.76938667 6.77408,5.29152 C4.26741333,7.35978667 3.16661333,10.81792 2.53194667,13.8909867 C1.66194444,18.1009487 2.79282955,21.7041015 5.75035305,24.8127622 C6.64702992,21.1275883 9.10474667,17.9364337 12.5695135,16.6653214 C10.8573815,15.2871407 10.0034551,13.0651196 10.7796267,10.7892267 C11.82496,7.72256 15.1486933,6.58442667 18.11296,7.32256 C20.9332267,8.02442667 22.8094933,10.76896 22.1652267,13.67776 C21.8513029,15.0936407 21.019738,16.1712678 19.9287824,16.8775157 Z M15.4553409,16.0888074 C15.3249351,16.0947712 15.1954709,16.1032312 15.0669681,16.1141359 C15.302044,15.8439141 15.6572825,15.669909 16.0926933,15.73216 C20.2526933,16.32736 21.7780267,10.4542933 17.5454933,9.37909333 C15.7940267,8.93429333 13.7428267,9.39296 12.9236267,11.1540267 C12.0852267,12.9556267 13.0750933,14.9204267 14.8702933,15.5924267 C15.1487482,15.6967308 15.3399484,15.8764999 15.4553409,16.0888074 Z M7.59493264,26.4440071 C12.4584696,30.0490866 19.3301819,30.3997782 24.173725,27.0909098 C24.313192,22.4185706 21.0392939,18.309491 16.0955733,18.2130133 C11.4260848,18.1226562 8.12582493,22.0570626 7.59493264,26.4440071 Z" id="Fill" fill="#0E1C3D" fill-rule="nonzero"></path>
    </g>
</svg>