<?xml version="1.0" encoding="UTF-8"?>
<svg width="120px" height="109px" viewBox="0 0 120 109" version="1.1" xmlns="http://www.w3.org/2000/svg" xmlns:xlink="http://www.w3.org/1999/xlink">
    <!-- Generator: Sketch 55.2 (78181) - https://sketchapp.com -->
    <title>Icon/ROI</title>
    <desc>Created with Sketch.</desc>
    <g id="Icon/ROI" stroke="none" stroke-width="1" fill="none" fill-rule="evenodd">
        <path d="M31.9989931,29.6889958 C24.7874482,37.3013501 20.6180217,49.7819006 24.2767313,59.6090421 C25.7751031,63.6347821 31.7781698,82.687599 47.1727812,86.852488 C57.5297979,89.6541207 71.2142891,90.3917109 80.3290486,85.4584778 C94.2802419,77.9076314 103.248794,43.8892456 87.5537017,30.1871087 C78.4651586,22.2530985 68.7494371,19.5311235 56.684821,19.5476851 C49.1828784,19.5583483 39.2110421,22.0766415 31.9989931,29.6889958" id="Fill-1" fill="#FBB03B"></path>
        <path d="M31.2032036,92.4742941 C31.5876508,94.2205586 31.9720981,95.9668969 32.3565453,97.713012 C32.7049218,99.2965874 30.2743529,99.9666198 29.9259764,98.3830444 C29.3482058,95.758877 28.7704352,93.1347095 28.1926647,90.5105421 C28.0919302,90.0526449 28.2235435,89.671129 28.4699809,89.39838 C28.6294412,88.9766085 29.0054562,88.6525897 29.598321,88.6721124 C32.496753,88.7679033 35.395185,88.8636943 38.2941212,88.9594852 C39.9145005,89.0129265 39.9165171,91.5337405 38.2941212,91.4802993 C36.8124562,91.4313399 35.330923,91.3823805 33.8494541,91.3334212 C35.6068165,92.5997278 37.4821866,93.7007806 39.4638293,94.5811526 C42.0698469,95.7392146 44.8593797,96.4183219 47.637821,97.022309 C53.2557072,98.2433913 59.0016508,98.9093904 64.7521318,98.9103987 C73.2981957,98.911407 83.1661744,97.6020962 89.9396018,91.900519 C95.4702678,87.2450796 99.2343474,80.5876096 101.807594,73.9215689 C107.331202,59.6139325 109.105855,40.8258011 99.6659107,27.7120222 C98.716068,26.392124 100.90363,25.1352461 101.842886,26.4400194 C107.345319,34.0836318 109.077622,43.853803 108.711096,53.1061989 C108.368265,61.7445245 106.289602,70.338988 102.722146,78.2089695 C99.716327,84.8397188 95.4173307,91.4583682 89.2488987,95.5476327 C80.9987784,101.017295 69.9051799,101.864289 60.3018867,101.297105 C55.0636351,100.987549 49.8369792,100.191476 44.7414056,98.9376235 C39.7319798,97.7050477 35.2482268,95.5887441 31.2032036,92.4742941 Z M87.338171,17.3169366 C78.2851664,12.0191638 68.0832656,9.88033689 57.6054727,9.7118469 C49.1551998,9.5762271 40.7432433,11.3418053 33.3451582,15.5344232 C25.1978871,20.1515463 18.9971887,27.595006 15.5280444,36.2666064 C13.8557364,40.4476286 12.764728,44.8958571 12.5660879,49.4030726 C12.3845893,53.5346869 13.0636966,57.4011115 14.3851073,61.3003067 C15.2936087,63.9804362 16.0639695,66.6983779 17.0748159,69.3452327 C18.2167447,72.334414 19.5532803,75.8660745 22.0584653,77.9966665 C23.2966892,79.0498626 21.5048945,80.8250199 20.2762498,79.7793862 C17.2210231,77.1809311 15.6616475,72.8007646 14.3200703,69.1491133 C13.1685624,66.0147331 12.0704958,62.7795204 11.1619944,59.5644741 C8.58723497,50.4471938 10.5322951,40.5025823 14.6260971,32.1390254 C18.9230768,23.3595342 25.9425356,16.1631142 34.7880722,11.9437757 C43.0689463,7.9941642 52.0087613,6.81543154 61.0973043,7.3135444 C70.8475805,7.84798213 80.3094542,10.2368206 88.7200712,15.2034779 C88.6648613,13.4742284 88.6095294,11.7451007 88.5544648,10.0157058 C88.5020319,8.39028492 91.0233501,8.3973432 91.0752789,10.0157058 C91.1509033,12.3908168 91.2270319,14.7654237 91.3026563,17.1405347 C91.3048083,17.2078947 91.3025419,17.2724502 91.2962159,17.3342028 C91.5863292,17.9785927 91.4077007,18.8380819 90.5271531,19.0585717 C88.1222965,19.6610463 85.7653353,20.4082155 83.4522364,21.3005837 C81.9347063,21.8859167 81.2843363,19.4477854 82.782204,18.8695106 C84.2821243,18.2908578 85.800276,17.7734706 87.338171,17.3169366 Z M59.4085626,37.6503632 C59.5115182,41.750382 59.651908,45.8493073 59.8296979,49.9465836 C61.3589063,50.1919108 62.8884763,50.4357523 64.409654,50.7261975 C67.4094228,51.2989265 70.9788955,51.8736721 73.3963562,53.8943566 C75.9564949,56.0345278 75.7225634,59.3367942 74.5034977,62.1570809 C72.160582,67.577259 66.7319532,70.5552114 61.0981377,71.3278806 C61.2708104,73.6214406 61.4552262,75.9141781 61.6513793,78.2059949 C61.7900241,79.8248617 59.2682017,79.810241 59.1305652,78.2059949 C58.9401924,75.9817129 58.7608752,73.7565638 58.5926191,71.5306371 C55.6441685,71.6304367 52.270455,71.3627795 49.8610278,69.588945 C47.6225449,67.9413409 46.514395,64.6889866 48.1529241,62.2432928 C49.0523506,60.9007072 51.2348714,62.1641392 50.329395,63.5157997 C49.4798807,64.7842734 49.9800102,66.3970902 51.0811018,67.356512 C52.4458705,68.5458321 54.450926,68.8261466 56.1887752,68.9486582 C56.9237487,69.0006382 57.665123,69.0226274 58.4068131,69.0096547 C58.0039288,63.3999299 57.6712738,57.7854836 57.4089362,52.167748 C54.2219494,51.6575493 51.0660493,51.0388356 48.0803247,49.8333252 C45.6981554,48.8708784 43.4465643,47.0579089 43.808049,44.2169514 C44.1710463,41.3654066 46.7150518,38.9585333 49.047309,37.5277192 C51.4730183,36.0392158 54.121021,35.33514 56.8300978,35.1729821 C56.7958227,33.5736452 56.7672437,31.974159 56.7443626,30.3745564 C56.720667,28.7491355 59.241481,28.753673 59.2651767,30.3745564 C59.2880462,31.97335 59.3166079,33.5720272 59.3508598,35.1705553 C62.3709536,35.3355428 65.4048889,36.0715558 68.2347373,37.0507812 C69.7608381,37.5786397 69.1013932,40.0127377 67.5647049,39.4813501 C64.9536079,38.5779286 62.1892913,37.827931 59.4085626,37.6503632 Z M56.8879326,37.6576936 C56.1409717,37.7132123 55.3958118,37.819262 54.6551119,37.9839866 C51.5600564,38.672673 47.3018973,40.7357072 46.3863377,44.1085564 C45.4899362,47.4103187 51.4375449,48.3263825 53.540408,48.7997914 C54.783804,49.0798827 56.0355965,49.3141865 57.2909136,49.5294661 C57.1217135,45.5735614 56.9873762,41.6161373 56.8879326,37.6576936 Z M60.9143532,68.8244721 C63.025981,68.5417377 65.0833888,67.9237151 66.9420638,66.8523492 C69.4069158,65.4316184 71.5238955,63.2082604 72.4656716,60.4867895 C73.0167216,58.8936351 73.2420823,57.1270486 71.8752969,55.9004204 C70.8634422,54.9924232 69.4921193,54.5623723 68.21205,54.1948377 C65.5236624,53.4232261 62.7381251,52.9844468 59.9481653,52.5596409 C60.2046741,57.9847802 60.5267632,63.4068206 60.9143532,68.8244721 Z" id="Combined-Shape" fill="#0E1C3D"></path>
    </g>
</svg>