<?xml version="1.0" encoding="UTF-8"?>
<svg width="113px" height="20px" viewBox="0 0 113 20" version="1.1" xmlns="http://www.w3.org/2000/svg" xmlns:xlink="http://www.w3.org/1999/xlink">
    <!-- Generator: Sketch 52.4 (67378) - http://www.bohemiancoding.com/sketch -->
    <title>SGApricot-Logo</title>
    <desc>Created with Sketch.</desc>
    <g id="SGApricot-Logo" stroke="none" stroke-width="1" fill="none" fill-rule="evenodd">
        <g id="Brand/Logos/SGApricot">
            <g id="SGApricot_Logo">
                <path d="M43.5495317,0.729032258 L46.6556474,0.729032258 L52.5930579,15.3096774 L50.036584,15.3096774 L48.6560882,11.7677419 L41.5426997,11.7677419 L40.1622039,15.3096774 L37.60573,15.3096774 L43.5495317,0.729032258 Z M47.8827548,9.67741935 L45.1153719,2.62580645 L42.3543802,9.67741935 L47.8827548,9.67741935 Z" id="Shape" fill="#30D1BD" fill-rule="nonzero"></path>
                <path d="M56.4725069,5.43870968 L56.4725069,7.18709677 C57.197702,6.0010171 58.4728303,5.27104476 59.8534435,5.2516129 C62.5185675,5.2516129 64.2889256,7.43870968 64.2889256,10.4580645 C64.2889256,13.4774194 62.4354821,15.5419355 59.6489256,15.5419355 C58.4103067,15.6195496 57.2269617,15.0148787 56.5555923,13.9612903 L56.5555923,19.4580645 L54.3953719,19.4580645 L54.3953719,5.43870968 L56.4725069,5.43870968 Z M62.122314,10.4322581 C62.122314,8.54193548 60.8440771,7.20645161 59.2974105,7.20645161 C57.6384097,7.31702573 56.3776964,8.75665612 56.4725069,10.4322581 C56.4182905,11.2317063 56.6887569,12.0189945 57.2216528,12.6129131 C57.7545487,13.2068316 58.5039656,13.5562148 59.2974105,13.5806452 C60.8696419,13.5806452 62.122314,12.3290323 62.122314,10.4322581 Z" id="Shape" fill="#30D1BD" fill-rule="nonzero"></path>
                <path d="M68.7180165,5.43870968 L68.7180165,6.87096774 C69.0526774,5.84725955 70.0224484,5.17440312 71.089146,5.22580645 C71.8446981,5.20345908 72.5757326,5.49770352 73.1087603,6.03870968 C73.642382,6.55439821 73.9349302,7.27393381 73.9140496,8.01935484 C73.9199814,8.4408916 73.872733,8.8614761 73.7734435,9.27096774 L71.6260055,9.27096774 C71.6852456,8.99768582 71.7131243,8.71842828 71.7090909,8.43870968 C71.7047497,8.06363568 71.5472846,7.70699115 71.273871,7.45297461 C71.0004574,7.19895807 70.6353275,7.07008275 70.2646832,7.09677419 C69.8342267,7.07799246 69.4168109,7.24833387 69.1202186,7.56381381 C68.8236262,7.87929375 68.6769327,8.30898515 68.7180165,8.74193548 L68.7180165,15.3096774 L66.5577961,15.3096774 L66.5577961,5.43870968 L68.7180165,5.43870968 Z" id="Path" fill="#30D1BD"></path>
                <path d="M76.0550964,1.35483871 L78.4262259,1.35483871 L78.4262259,3.7483871 L76.0550964,3.7483871 L76.0550964,1.35483871 Z M78.3239669,5.43870968 L78.3239669,15.3096774 L76.1573554,15.3096774 L76.1573554,5.43870968 L78.3239669,5.43870968 Z" id="Shape" fill="#30D1BD" fill-rule="nonzero"></path>
                <path d="M88.7160331,10.8322581 L90.6717355,11.5612903 C90.2932164,13.9343271 88.2051991,15.6388872 85.8272176,15.516129 C82.6316253,15.516129 80.5736639,13.4322581 80.5736639,10.3096774 C80.5371482,8.96609676 81.0436324,7.66532512 81.9766668,6.70643275 C82.9097012,5.74754037 84.1890039,5.21303415 85.5204408,5.22580645 C87.9299174,5.22580645 89.7450138,6.6 90.1604408,8.8516129 L88.1983471,9.49677419 C88.0832376,8.10356091 86.9045246,7.04717181 85.5204408,7.09677419 C84.705169,7.1136842 83.9329444,7.46945665 83.3861057,8.0800861 C82.839267,8.69071556 82.5662882,9.50207333 82.6316253,10.3225806 C82.6023325,11.1793347 82.9120776,12.0126225 83.4924653,12.6384437 C84.0728529,13.2642649 84.8761428,13.6311422 85.7249587,13.6580645 C87.5592287,13.6451613 88.4859504,12.4774194 88.7160331,10.8322581 Z" id="Path" fill="#30D1BD"></path>
                <path d="M97.2290909,5.22580645 C98.58694,5.19448163 99.8972419,5.731035 100.849738,6.70841918 C101.802234,7.68580335 102.312225,9.01710644 102.258953,10.3870968 C102.258953,13.1912781 100.007007,15.4645161 97.2290909,15.4645161 C94.4511747,15.4645161 92.1992287,13.1912781 92.1992287,10.3870968 C92.1459571,9.01710644 92.6559482,7.68580335 93.6084441,6.70841918 C94.5609399,5.731035 95.8712419,5.19448163 97.2290909,5.22580645 Z M97.2290909,7.20645161 C95.5801653,7.20645161 94.3658402,8.49677419 94.3658402,10.3741935 C94.3658402,12.2516129 95.5801653,13.5419355 97.2290909,13.5419355 C98.8780165,13.5419355 100.092342,12.2516129 100.092342,10.3741935 C100.092342,8.49677419 98.8780165,7.20645161 97.2290909,7.20645161 Z" id="Shape" fill="#30D1BD" fill-rule="nonzero"></path>
                <path d="M105.575978,7.30967742 L103.620275,7.30967742 L103.620275,5.43870968 L105.575978,5.43870968 L105.575978,2.29032258 L107.74259,2.29032258 L107.74259,5.43870968 L111.455868,5.43870968 L111.455868,7.30967742 L107.74259,7.30967742 L107.74259,12.2903226 C107.703431,12.6421631 107.817701,12.993812 108.055702,13.2538772 C108.293702,13.5139424 108.631929,13.6567413 108.982479,13.6451613 C109.806942,13.6451613 110.260716,13.1225806 110.318237,11.9741935 L112.38259,12.3935484 C112.197245,14.3741935 110.957355,15.516129 109.084738,15.516129 C106.771129,15.516129 105.575978,14.2258065 105.575978,12.1870968 L105.575978,7.30967742 Z" id="Path" fill="#30D1BD"></path>
                <g id="Page-1" fill="#34343C">
                    <g id="Artboard">
                        <g id="Group-11">
                            <g id="Group-3" transform="translate(0.000000, 0.645161)">
                                <path d="M9.12022039,4.39354839 C8.66243084,3.17254201 7.46368886,2.40082324 6.1738843,2.49677419 C5.22798898,2.49677419 3.91140496,2.89032258 3.91140496,4.0516129 C3.91140496,5.5483871 6.15471074,5.98709677 7.26677686,6.21290323 C9.82325069,6.69032258 12.3797245,7.50322581 12.3797245,10.5548387 C12.3797245,13.716129 9.29278237,14.9612903 6.6276584,14.9612903 C5.24437865,14.9745337 3.88132471,14.6255469 2.67151515,13.9483871 C1.3835602,13.1949798 0.428284393,11.9745998 1.01696429e-15,10.5354839 L2.70347107,9.67741935 C3.28820752,11.3673405 4.9007785,12.4709013 6.67239669,12.3935484 C7.73972452,12.3935484 9.5292562,12.0387097 9.5292562,10.6516129 C9.5292562,9.07096774 7.4137741,8.71612903 6.23779614,8.56774194 C2.82916437,8.0516129 1.12484848,6.54623656 1.12484848,4.0516129 C1.13123967,1.24516129 3.9753168,0 6.3400551,0 C8.70479339,0 10.9097521,1.16129032 11.7342149,3.57419355 L9.12022039,4.39354839" id="Fill-1"></path>
                            </g>
                            <path d="M35.7331129,5.37419355 C35.7331129,6.71392946 34.657215,7.8 33.3300275,7.8 C32.0028401,7.8 30.9269421,6.71392946 30.9269421,5.37419355 C30.9269421,4.03445764 32.0028401,2.9483871 33.3300275,2.9483871 C34.657215,2.9483871 35.7331129,4.03445764 35.7331129,5.37419355" id="Fill-4"></path>
                            <path d="M34.9533884,11.8193548 C34.9535549,12.2619067 34.7763952,12.6857119 34.4622102,12.9943614 C34.1480252,13.3030109 33.7235295,13.4702609 33.2852893,13.4580645 C32.4273846,13.4249747 31.7394465,12.7305322 31.7066667,11.8645161 C31.6986749,11.2790615 32.0007011,10.7337754 32.4989749,10.4340616 C32.9972486,10.1343478 33.6160703,10.1257401 34.1223357,10.411481 C34.6286012,10.6972218 34.9453967,11.2339003 34.9533884,11.8193548" id="Fill-6"></path>
                            <g id="Group-10" transform="translate(13.421488, 0.000000)">
                                <path d="M7.31790634,10.1419355 L11.5041322,10.1419355 C11.076556,11.8777489 9.50418599,13.074902 7.73333333,13.0129032 C4.95955923,13.0129032 3.19559229,10.9677419 3.19559229,8.12903226 C3.19559229,5.42580645 4.98512397,3.22580645 7.78446281,3.22580645 C9.30877889,3.13035839 10.7532291,3.9220456 11.5041322,5.26451613 L14.233168,4.40645161 C13.0827548,1.87096774 10.6732782,0.64516129 7.73972452,0.64516129 C5.76351443,0.609781941 3.85800585,1.38710593 2.46099736,2.79853982 C1.06398887,4.2099737 0.295589274,6.13416846 0.332341598,8.12903226 C0.332341598,12.3032258 3.1892011,15.6064516 7.4968595,15.6064516 C9.82325069,15.6064516 11.6958678,14.5870968 12.6098072,12.3806452 L12.6098072,15.3935484 L14.9042424,15.3935484 L14.9042424,7.74193548 L7.31790634,7.74193548 L7.31790634,10.1419355 Z" id="Fill-8"></path>
                            </g>
                        </g>
                    </g>
                </g>
            </g>
        </g>
    </g>
</svg>