<?xml version="1.0" encoding="UTF-8"?>
<svg width="118px" height="20px" viewBox="0 0 118 20" version="1.1" xmlns="http://www.w3.org/2000/svg" xmlns:xlink="http://www.w3.org/1999/xlink">
    <!-- Generator: Sketch 52.4 (67378) - http://www.bohemiancoding.com/sketch -->
    <title>SGDesktop-Logo</title>
    <desc>Created with Sketch.</desc>
    <g id="SGDesktop-Logo" stroke="none" stroke-width="1" fill="none" fill-rule="evenodd">
        <g id="Brand/Logos/SGDesktop">
            <g id="SGDesktop_Logo">
                <g id="Page-1" fill="#34343C">
                    <g id="Artboard">
                        <g id="Group-11">
                            <g id="Group-3" transform="translate(0.000000, 0.645161)">
                                <path d="M9.02956522,4.35483871 C8.57221053,3.14478201 7.38630294,2.37983221 6.10898551,2.47096774 C5.1715942,2.47096774 3.87072464,2.86451613 3.87072464,4.01935484 C3.87072464,5.50322581 6.08985507,5.95483871 7.19304348,6.16129032 C9.69275362,6.63870968 12.2243478,7.4516129 12.2243478,10.4709677 C12.2243478,13.4903226 9.16985507,14.8387097 6.53623188,14.8387097 C5.16914929,14.8507556 3.82233464,14.5039895 2.62724638,13.8322581 C1.35954972,13.0831075 0.420462166,11.8747237 1.00808251e-15,10.4516129 L2.67188406,9.61290323 C3.25381522,11.2862176 4.84826454,12.3782381 6.6,12.3032258 C7.65855072,12.3032258 9.43130435,11.9548387 9.43130435,10.5741935 C9.43130435,9.00645161 7.33333333,8.67741935 6.17275362,8.50967742 C2.81217391,7.99354839 1.12231884,6.49032258 1.12231884,3.99354839 C1.12231884,1.23870968 3.92811594,0 6.27478261,0 C8.62144928,0 10.795942,1.15483871 11.6121739,3.54193548 L9.02956522,4.35483871" id="Fill-1"></path>
                            </g>
                            <path d="M35.3594203,5.33548387 C35.3619991,6.31258141 34.7818775,7.1947987 33.8901145,7.56992398 C32.9983514,7.94504926 31.971007,7.73902187 31.2881028,7.04810712 C30.6051987,6.35719236 30.40156,5.31779694 30.772336,4.41557333 C31.143112,3.51334973 32.0151007,2.92642317 32.9808696,2.92903226 C34.2945069,2.92903226 35.3594203,4.00643734 35.3594203,5.33548387" id="Fill-4"></path>
                            <path d="M34.5878261,11.7290323 C34.5878261,12.6269404 33.8683671,13.3548387 32.9808696,13.3548387 C32.093372,13.3548387 31.373913,12.6269404 31.373913,11.7290323 C31.373913,10.8311241 32.093372,10.1032258 32.9808696,10.1032258 C33.8669153,10.1067621 34.5843308,10.832593 34.5878261,11.7290323" id="Fill-6"></path>
                            <g id="Group-10" transform="translate(13.391304, 0.000000)">
                                <path d="M7.12927536,10.0645161 L11.2742029,10.0645161 C10.8486384,11.7800598 9.29740333,12.9625081 7.55014493,12.9032258 C4.79536232,12.9032258 3.02898551,10.8387097 3.02898551,8.05806452 C3.02898551,5.38709677 4.82086957,3.22580645 7.5884058,3.22580645 C9.10051371,3.11740088 10.5403996,3.89468243 11.2933333,5.22580645 L14.0289855,4.37419355 C12.8301449,1.85806452 10.4515942,0.64516129 7.55014493,0.64516129 C5.59419431,0.607997373 3.70751354,1.37773723 2.32420372,2.77727356 C0.940893896,4.17680988 0.180078563,6.08562181 0.216811594,8.06451613 C0.216811594,12.2064516 3.04811594,15.483871 7.30144928,15.483871 C9.60347826,15.483871 11.4591304,14.4709677 12.4028986,12.2903226 L12.4028986,15.2774194 L14.6666667,15.2774194 L14.6666667,7.6516129 L7.12927536,7.6516129 L7.12927536,10.0645161 Z" id="Fill-8"></path>
                            </g>
                        </g>
                    </g>
                </g>
                <path d="M39.364058,0.838709677 L44.8162319,0.838709677 C49.4649275,0.838709677 52.0156522,3.91612903 52.0156522,8.23225806 C52.0156522,12.3548387 49.382029,15.4193548 44.8162319,15.4193548 L39.364058,15.4193548 L39.364058,0.838709677 Z M41.6278261,13.3354839 L44.8162319,13.3354839 C48.0046377,13.3354839 49.7518841,11 49.7518841,8.23225806 C49.7391304,5.16129032 48.0428986,2.91612903 44.8162319,2.91612903 L41.6278261,2.91612903 L41.6278261,13.3354839 Z" id="Shape" fill="#F47422" fill-rule="nonzero"></path>
                <path d="M63.3855072,12.4 C62.8243517,14.4147473 60.9482254,15.7590346 58.8834783,15.6258065 C55.88,15.6258065 53.8266667,13.6064516 53.8266667,10.4193548 C53.8266667,7.58709677 55.7397101,5.33548387 58.5773913,5.33548387 C61.1281159,5.33548387 62.9773913,7 62.9773913,9.69032258 C62.9759325,10.0732294 62.9417961,10.4552936 62.8753623,10.8322581 L55.982029,10.8322581 C55.9252857,11.6571138 56.2447951,12.4628803 56.8492754,13.0193548 C57.4280384,13.4984661 58.1548402,13.7565157 58.9026087,13.7483871 C60.1787363,13.8469747 61.3195113,12.9471238 61.5362319,11.6709677 L63.3855072,12.4 Z M60.8347826,9.37419355 L60.8347826,9.18709677 C60.8347826,7.96129032 59.8655072,7.21290323 58.5455072,7.21290323 C57.2698701,7.1548937 56.1622076,8.09344278 55.9947826,9.37419355 L60.8347826,9.37419355 Z" id="Shape" fill="#F47422" fill-rule="nonzero"></path>
                <path d="M66.5547826,11.9806452 C66.9605119,13.1239861 68.0747218,13.849044 69.2713043,13.7483871 C70.4255072,13.7483871 71.1014493,13.2709677 71.1014493,12.6064516 C71.1014493,11.7096774 70.5849275,11.316129 68.6973913,11.0193548 C66.5356522,10.6709677 65.3431884,9.77419355 65.3431884,8.12903226 C65.3431884,6.48387097 67.0075362,5.33548387 68.9843478,5.33548387 C70.9611594,5.33548387 71.924058,6.12903226 72.5617391,7.48387097 L70.9165217,8.38709677 C70.6650699,7.55009154 69.8638528,7.00968116 69.0034783,7.09677419 C68.0342029,7.09677419 67.2944928,7.57419355 67.2944928,8.18064516 C67.2944928,8.92903226 67.893913,9.2 69.7623188,9.47096774 C72.1727536,9.82580645 73.1611594,10.8258065 73.1611594,12.516129 C73.1611594,14.3483871 71.4075362,15.6387097 69.1884058,15.6387097 C66.9692754,15.6387097 65.4643478,14.6 64.8075362,12.9290323 L66.5547826,11.9806452 Z" id="Path" fill="#F47422"></path>
                <polygon id="Path" fill="#F47422" points="84.2249275 15.4193548 81.6742029 15.4193548 78.7727536 11.1677419 77.5547826 12.4580645 77.5547826 15.4193548 75.3994203 15.4193548 75.3994203 0.838709677 77.5547826 0.838709677 77.5547826 9.67741935 81.2597101 5.52903226 84.04 5.52903226 80.2521739 9.57419355"></polygon>
                <path d="M87.2475362,7.41935484 L85.2898551,7.41935484 L85.2898551,5.54193548 L87.2475362,5.54193548 L87.2475362,2.4 L89.4092754,2.4 L89.4092754,5.54193548 L93.1014493,5.54193548 L93.1014493,7.41935484 L89.4028986,7.41935484 L89.4028986,12.4 C89.3659954,12.7496422 89.4800782,13.0983814 89.7158673,13.3567129 C89.9516564,13.6150444 90.2861951,13.7578168 90.6336232,13.7483871 C91.4562319,13.7483871 91.9089855,13.2322581 91.9727536,12.083871 L94.026087,12.5032258 C93.8411594,14.4774194 92.6104348,15.6258065 90.7356522,15.6258065 C88.4336232,15.6258065 87.2411594,14.3354839 87.2411594,12.2903226 L87.2475362,7.41935484 Z" id="Path" fill="#F47422"></path>
                <path d="M100.186087,5.33548387 C101.541439,5.30224628 102.849913,5.83819197 103.800688,6.81600941 C104.751464,7.79382684 105.259689,9.12625237 105.204638,10.4967742 C105.204638,13.3009555 102.957756,15.5741935 100.186087,15.5741935 C97.4144179,15.5741935 95.1675362,13.3009555 95.1675362,10.4967742 C95.1105762,9.12572002 95.6181794,7.79216589 96.5693785,6.81391242 C97.5205776,5.83565894 98.8301778,5.30032403 100.186087,5.33548387 Z M100.186087,7.31612903 C98.5408696,7.31612903 97.3228986,8.60645161 97.3228986,10.4774194 C97.3228986,12.3483871 98.5408696,13.6451613 100.186087,13.6451613 C101.831304,13.6451613 103.042899,12.3548387 103.042899,10.4774194 C103.042899,8.6 101.831304,7.31612903 100.186087,7.31612903 Z" id="Shape" fill="#F47422" fill-rule="nonzero"></path>
                <path d="M109.521739,5.54193548 L109.521739,7.29677419 C110.243582,6.10888855 111.516916,5.37830041 112.895072,5.36129032 C115.547826,5.36129032 117.314203,7.5483871 117.314203,10.5677419 C117.314203,13.5870968 115.464928,15.6516129 112.691014,15.6516129 C111.455181,15.729227 110.274497,15.1245561 109.604638,14.0709677 L109.604638,19.5677419 L107.442899,19.5677419 L107.442899,5.54193548 L109.521739,5.54193548 Z M115.158841,10.5419355 C115.158841,8.64516129 113.883478,7.31612903 112.34029,7.31612903 C110.681695,7.41983408 109.419996,8.86383796 109.521739,10.5419355 C109.467645,11.3413837 109.737503,12.128672 110.2692,12.7225905 C110.800898,13.3165091 111.548629,13.6658922 112.34029,13.6903226 C113.902609,13.6903226 115.158841,12.4387097 115.158841,10.5419355 Z" id="Shape" fill="#F47422" fill-rule="nonzero"></path>
            </g>
        </g>
    </g>
</svg>