<?xml version="1.0" encoding="UTF-8"?>
<svg width="133px" height="20px" viewBox="0 0 133 20" version="1.1" xmlns="http://www.w3.org/2000/svg" xmlns:xlink="http://www.w3.org/1999/xlink">
    <!-- Generator: Sketch 52.4 (67378) - http://www.bohemiancoding.com/sketch -->
    <title>SGOvercast-Logo</title>
    <desc>Created with Sketch.</desc>
    <g id="SGOvercast-Logo" stroke="none" stroke-width="1" fill="none" fill-rule="evenodd">
        <g id="Brand/Logos/SGOvercast">
            <g id="SGOvercast_Logo">
                <path d="M55.8202985,8.5884 C55.8605639,11.8378853 53.9864642,14.7903648 51.0763769,16.0620316 C48.1662895,17.3336985 44.7969618,16.6725225 42.5475742,14.3883922 C40.2981867,12.1042619 39.6145431,8.64986683 40.8170624,5.64425788 C42.0195818,2.63864893 44.8699381,0.677504757 48.0321891,0.68 C50.0907568,0.648985585 52.0751528,1.46913744 53.5396201,2.95622399 C55.0040873,4.44331055 55.8258442,6.47265371 55.8202985,8.5884 Z M53.3654229,8.5884 C53.4341466,6.58302795 52.4323055,4.69900989 50.7528864,3.67537981 C49.0734674,2.65174974 46.9842938,2.65174974 45.3048747,3.67537981 C43.6254557,4.69900989 42.6236146,6.58302795 42.6923383,8.5884 C42.6236146,10.593772 43.6254557,12.4777901 45.3048747,13.5014202 C46.9842938,14.5250503 49.0734674,14.5250503 50.7528864,13.5014202 C52.4323055,12.4777901 53.4341466,10.593772 53.3654229,8.5884 Z" id="Shape" fill="#2196FF" fill-rule="nonzero"></path>
                <polygon id="Path" fill="#2196FF" points="62.6026368 13.9672 65.5736318 5.8616 67.9226368 5.8616 63.8863184 16.2724 61.3255721 16.2724 57.2892537 5.8616 59.6382587 5.8616"></polygon>
                <path d="M78.8934826,13.0832 C78.3063261,15.206208 76.3587613,16.6216622 74.2153234,16.4832 C71.0987562,16.4832 68.9681095,14.3548 68.9681095,10.9956 C68.9681095,8.0104 70.9531841,5.6372 73.8977114,5.6372 C76.5444776,5.6372 78.4633831,7.3916 78.4633831,10.2272 C78.4618694,10.6307838 78.4264476,11.0334795 78.3575124,11.4308 L71.2046269,11.4308 C71.1486505,12.3058603 71.4879084,13.1586608 72.1243781,13.7428 C72.7249332,14.2477833 73.4791009,14.5197676 74.2550249,14.5112 C75.5813516,14.6146851 76.7659482,13.6625989 76.9878109,12.3148 L78.8934826,13.0832 Z M76.2467164,9.9008 L76.2467164,9.7036 C76.2467164,8.4116 75.2409453,7.616 73.8712438,7.616 C72.5464285,7.55850129 71.3980404,8.54983829 71.2244776,9.9008 L76.2467164,9.9008 Z" id="Shape" fill="#2196FF" fill-rule="nonzero"></path>
                <path d="M83.3731343,5.8616 L83.3731343,7.378 C83.7177002,6.29753663 84.7229838,5.58745514 85.82801,5.644 C86.6119635,5.62180586 87.3703585,5.93159064 87.9255721,6.5008 C88.4735219,7.04697302 88.7735455,7.80421916 88.7526866,8.5884 C88.7588418,9.03045735 88.7099204,9.47150676 88.6071144,9.9008 L86.3838308,9.9008 C86.4451633,9.61276086 86.4740266,9.31842341 86.4698507,9.0236 C86.4616601,8.63011982 86.2972823,8.25718823 86.014868,7.99135948 C85.7324537,7.72553072 85.3565597,7.5899195 84.9744279,7.616 C84.5274983,7.59595315 84.0941326,7.77639138 83.786819,8.11047849 C83.4795054,8.44456561 83.3285493,8.89935595 83.3731343,9.3568 L83.3731343,16.2724 L81.1366169,16.2724 L81.1366169,5.8616 L83.3731343,5.8616 Z" id="Path" fill="#2196FF"></path>
                <path d="M98.7177612,11.56 L100.742537,12.3284 C100.350855,14.8306335 98.190042,16.6293787 95.7269154,16.5036 C92.4184577,16.5036 90.2878109,14.3072 90.2878109,11.016 C90.2500055,9.59986598 90.7743783,8.22885268 91.7403666,7.21818011 C92.706355,6.20750755 94.0308415,5.64413799 95.4093035,5.6576 C97.9038806,5.6576 99.7830846,7.106 100.213184,9.4792 L98.181791,10.1592 C98.0526881,8.69887371 96.8352331,7.59703361 95.4093035,7.65 C94.565237,7.66782315 93.7657382,8.04280731 93.1995856,8.68641075 C92.6334331,9.3300142 92.3508129,10.1851853 92.4184577,11.05 C92.3899253,11.9518628 92.7114127,12.8283925 93.3121086,13.4865234 C93.9128045,14.1446544 94.7434352,14.5304017 95.6210448,14.5588 C97.5002488,14.5112 98.4795522,13.2872 98.7177612,11.56 Z" id="Path" fill="#2196FF"></path>
                <path d="M106.380149,9.9688 C106.984349,9.96456467 107.586711,10.0376603 108.173333,10.1864 L109.238657,10.4516 L109.238657,9.6832 C109.238657,8.3232 108.232886,7.5072 106.889652,7.5072 C105.6824,7.43650178 104.62016,8.31922218 104.434776,9.5472 L102.41,8.9964 C102.853333,6.9564 104.395075,5.5964 106.889652,5.5964 C109.774627,5.5964 111.369303,7.1128 111.369303,9.7444 L111.369303,16.2248 L109.238657,16.2248 L109.238657,14.5112 C108.788706,15.674 107.637363,16.49 105.844179,16.49 C104.992259,16.528632 104.16113,16.2128508 103.538552,15.6139941 C102.915974,15.0151374 102.554475,14.183732 102.535721,13.3076 C102.515871,11.0432 104.137015,9.9688 106.380149,9.9688 Z M109.238657,12.24 L108.424776,12.0224 C107.878171,11.856237 107.313639,11.7603064 106.74408,11.7368 C105.612587,11.7368 104.864876,12.1788 104.864876,13.0968 C104.864876,13.9128 105.460398,14.5248 106.74408,14.5248 C108.213035,14.5248 109.238657,13.7156 109.238657,12.3284 L109.238657,12.24 Z" id="Shape" fill="#2196FF" fill-rule="nonzero"></path>
                <path d="M115.253433,12.648 C115.674439,13.8530814 116.830602,14.6172924 118.072239,14.5112 C119.2699,14.5112 119.971294,14.008 119.971294,13.3076 C119.971294,12.3624 119.44194,11.9476 117.476716,11.6348 C115.233582,11.2608 113.996219,10.3224 113.996219,8.5884 C113.996219,6.8544 115.723234,5.644 117.781095,5.644 C119.838955,5.644 120.831493,6.4804 121.493184,7.9016 L119.766169,8.874 C119.50525,7.99179649 118.673864,7.42220394 117.781095,7.514 C116.78194,7.514 116.014378,8.0172 116.014378,8.6564 C116.014378,9.4452 116.629751,9.7308 118.575124,10.0164 C121.069701,10.3904 122.095323,11.4444 122.095323,13.226 C122.095323,15.1572 120.282289,16.5172 117.972985,16.5172 C115.663682,16.5172 114.108706,15.4224 113.427164,13.6612 L115.253433,12.648 Z" id="Path" fill="#2196FF"></path>
                <path d="M125.330995,7.8404 L123.299602,7.8404 L123.299602,5.8616 L125.330995,5.8616 L125.330995,2.55 L127.567512,2.55 L127.567512,5.8616 L131.41194,5.8616 L131.41194,7.8404 L127.567512,7.8404 L127.567512,13.0832 C127.529238,13.4535301 127.648322,13.8228215 127.894227,14.096372 C128.140131,14.3699225 128.488937,14.5211233 128.851194,14.5112 C129.704776,14.5112 130.174577,13.9672 130.240746,12.7568 L132.371393,13.1988 C132.179502,15.2796 130.902438,16.49 128.957065,16.49 C126.568358,16.49 125.330995,15.13 125.330995,12.9744 L125.330995,7.8404 Z" id="Path" fill="#2196FF"></path>
                <g id="Page-1" transform="translate(0.000000, 0.680000)" fill="#34343C">
                    <g id="Artboard">
                        <g id="Group-11">
                            <g id="Group-3">
                                <path d="M9.44233831,4.76 C8.98028052,3.45841328 7.73709468,2.62701387 6.3919403,2.72 C5.41263682,2.72 4.04955224,3.1416 4.04955224,4.3656 C4.04955224,5.9432 6.37208955,6.4056 7.52343284,6.6436 C10.170199,7.1468 12.8169652,8.0036 12.8169652,11.22 C12.8169652,14.552 9.62099502,15.8644 6.86174129,15.8644 C5.42868383,15.8790974 4.01676049,15.5087316 2.76587065,14.79 C1.43546301,14.0050382 0.446330146,12.728332 -2.02282635e-15,11.22 L2.79895522,10.3292 C3.40434403,12.1103769 5.07386956,13.27353 6.9080597,13.192 C8.01308458,13.192 9.8658209,12.818 9.8658209,11.356 C9.8658209,9.69 7.67562189,9.316 6.45810945,9.1596 C2.92908789,8.6156 1.16457711,7.02893333 1.16457711,4.3996 C1.17119403,1.428 4.11572139,0.1156 6.5639801,0.1156 C9.01223881,0.1156 11.2950746,1.36 12.1486567,3.8828 L9.44233831,4.76" id="Fill-1"></path>
                            </g>
                            <path d="M36.9951741,5.1 C36.9951741,6.51208165 35.8812764,7.6568 34.5072139,7.6568 C33.1331515,7.6568 32.0192537,6.51208165 32.0192537,5.1 C32.0192537,3.68791835 33.1331515,2.5432 34.5072139,2.5432 C35.8812764,2.5432 36.9951741,3.68791835 36.9951741,5.1" id="Fill-4"></path>
                            <path d="M36.1879104,11.8932 C36.1827619,12.3561011 35.9970097,12.7975031 35.6723219,13.1183904 C35.3476341,13.4392776 34.9111909,13.6127882 34.4608955,13.6 C33.5726905,13.5651234 32.860455,12.8331809 32.8265174,11.9204 C32.8182434,11.3033309 33.1309369,10.7285992 33.6468092,10.4127009 C34.1626815,10.0968026 34.8033594,10.0877301 35.3275057,10.3889009 C35.851652,10.6900717 36.1796365,11.2557309 36.1879104,11.8728" id="Fill-6"></path>
                            <g id="Group-10" transform="translate(13.895522, 0.000000)">
                                <path d="M7.57636816,10.1252 L11.9104478,10.1252 C11.4677699,11.9547474 9.83986523,13.2165467 8.00646766,13.1512 C5.12810945,13.1512 3.27537313,10.9616 3.27537313,8.0036 C3.30845771,5.1544 5.16119403,2.856 8.05940299,2.856 C9.63328571,2.75137974 11.1276784,3.57730249 11.9104478,4.9844 L14.7623383,4.08 C13.5448259,1.4076 11.0502488,0.1156 8.01308458,0.1156 C5.96707654,0.0783101657 3.99426712,0.897609655 2.54791756,2.38526097 C1.101568,3.87291228 0.30602922,5.90101356 0.344079602,8.0036 C0.344079602,12.4032 3.3018408,15.8848 7.76164179,15.8848 C10.170199,15.8848 12.1089552,14.8104 13.0551741,12.4848 L13.0551741,15.64 L15.4306468,15.64 L15.4306468,7.5616 L7.57636816,7.5616 L7.57636816,10.1252 Z" id="Fill-8"></path>
                            </g>
                        </g>
                    </g>
                </g>
            </g>
        </g>
    </g>
</svg>