<?xml version="1.0" encoding="UTF-8"?>
<svg width="117px" height="19px" viewBox="0 0 117 19" version="1.1" xmlns="http://www.w3.org/2000/svg" xmlns:xlink="http://www.w3.org/1999/xlink">
    <!-- Generator: Sketch 55.1 (78136) - https://sketchapp.com -->
    <title>Logo/Trust/Siemens</title>
    <desc>Created with Sketch.</desc>
    <g id="Mockups" stroke="none" stroke-width="1" fill="none" fill-rule="evenodd">
        <g id="SGOvercast-Overview" transform="translate(-603.000000, -881.000000)" fill="#B7BBC5" fill-rule="nonzero">
            <g id="Trust" transform="translate(240.000000, 813.000000)">
                <g id="Logo/Trust/Siemens" transform="translate(363.000000, 68.000000)">
                    <path d="M0.733747842,17.8947128 L0.733747842,14.4122286 C2.72485097,15.0363026 4.48618715,15.3491812 6.02028129,15.3491812 C8.13510508,15.3491812 9.19114932,14.7922278 9.19114932,13.6808459 C9.19114932,13.2659188 9.03734013,12.9187434 8.7309842,12.6353221 C8.41515985,12.337593 7.60529449,11.9207722 6.30812121,11.3905408 C3.97615503,10.4357034 2.45699994,9.62394435 1.75002472,8.95042421 C0.831377754,8.06460109 0.375,6.94354038 0.375,5.59123987 C0.375,3.84757807 1.04347032,2.52073708 2.37725482,1.60671911 C3.69462739,0.702800796 5.41451294,0.25 7.53270328,0.25 C8.70131649,0.25 10.3925864,0.465459115 12.6023048,0.892169158 L12.6023048,4.24104344 C10.9569041,3.58751218 9.43122632,3.25990492 8.01916956,3.25990492 C6.03332667,3.25990492 5.04019481,3.80507539 5.04019481,4.89162897 C5.04019481,5.30003341 5.24050446,5.62911354 5.63923007,5.88770656 C5.97378084,6.09538053 6.8922174,6.53324227 8.39180442,7.20676241 C10.5531287,8.16159977 11.9914866,8.99145402 12.7098239,9.69632515 C13.5621919,10.5360686 13.9876395,11.6179932 13.9876395,12.9482007 C13.9876395,14.856613 13.1535771,16.3124349 11.4833481,17.3150352 C10.1327309,18.1299504 8.37854863,18.5368819 6.22711363,18.5368819 C4.4081253,18.5368819 2.5760916,18.3226853 0.733747842,17.8947128 Z M16.7795604,18.1793966 L21.7267037,18.1793966 L21.7267037,0.558039203 L16.7795604,0.558039203 L16.7795604,18.1793966 Z M26.2662842,18.1793966 L26.2662842,0.558039203 L38.9556477,0.558039203 L38.9556477,3.7440567 L31.0328962,3.7440567 L31.0328962,7.72394845 L37.9311649,7.72394845 L37.9311649,10.6299112 L31.0328962,10.6299112 L31.0328962,14.8136895 L39.1607968,14.8136895 L39.1607968,18.1793966 L26.2662842,18.1793966 Z M42.3912106,18.1793966 L42.3912106,0.558039203 L48.8063795,0.558039203 L53.2632691,11.8172508 L57.8314653,0.558039203 L63.9238663,0.558039203 L63.9238663,18.1793966 L59.233212,18.1793966 L59.233212,5.70338802 L54.0379961,18.3571924 L50.972964,18.3571924 L45.8770614,5.70338802 L45.8770614,18.1793966 L42.3912106,18.1793966 Z M68.4617635,18.1793966 L68.4617635,0.558039203 L81.1509166,0.558039203 L81.1509166,3.7440567 L73.2298485,3.7440567 L73.2298485,7.72394845 L80.1247505,7.72394845 L80.1247505,10.6299112 L73.2298485,10.6299112 L73.2298485,14.8136895 L81.3562761,14.8136895 L81.3562761,18.1793966 L68.4617635,18.1793966 Z M84.6132015,18.1793966 L84.6132015,0.558039203 L90.3466443,0.558039203 L96.430629,12.3540049 L96.430629,0.558039203 L99.9158485,0.558039203 L99.9158485,18.1793966 L94.3433688,18.1793966 L88.0988419,6.2237302 L88.0988419,18.1793966 L84.6132015,18.1793966 Z M103.426528,17.8947128 L103.426528,14.4122286 C105.402481,15.0363026 107.163186,15.3491812 108.71243,15.3491812 C110.829147,15.3491812 111.887085,14.7922278 111.887085,13.6808459 C111.887085,13.2659188 111.734538,12.9187434 111.436599,12.6353221 C111.122458,12.337593 110.309857,11.9207722 109.002374,11.3905408 C106.678614,10.4453822 105.155671,9.63046704 104.442594,8.95042421 C103.527314,8.07112378 103.067148,6.94816939 103.067148,5.57651122 C103.067148,3.84294906 103.735619,2.52073708 105.069824,1.60671911 C106.38867,0.702800796 108.108555,0.25 110.228639,0.25 C111.42166,0.25 112.96417,0.440841227 114.859537,0.817894678 L115.296347,0.892169158 L115.296347,4.24104344 C113.651157,3.58751218 112.120219,3.25990492 110.70206,3.25990492 C108.72274,3.25990492 107.736131,3.80507539 107.736131,4.89162897 C107.736131,5.30003341 107.933074,5.62911354 108.333693,5.88770656 C108.651411,6.0857017 109.574687,6.52671958 111.098892,7.20676241 C113.243804,8.16159977 114.6809,8.99145402 115.403866,9.69632515 C116.25434,10.5360686 116.679998,11.6179932 116.679998,12.9482007 C116.679998,14.856613 115.850986,16.3124349 114.189173,17.3150352 C112.83056,18.1299504 111.074484,18.5368819 108.922629,18.5368819 C107.102167,18.5368819 105.270134,18.3226853 103.426528,17.8947128 L103.426528,17.8947128 Z" id="Siemens"></path>
                </g>
            </g>
        </g>
    </g>
</svg>