<?xml version="1.0" encoding="UTF-8"?>
<svg width="32px" height="32px" viewBox="0 0 32 32" version="1.1" xmlns="http://www.w3.org/2000/svg" xmlns:xlink="http://www.w3.org/1999/xlink">
    <!-- Generator: Sketch 55.2 (78181) - https://sketchapp.com -->
    <title>Icon/Variation</title>
    <desc>Created with Sketch.</desc>
    <g id="Icon/Variation" stroke="none" stroke-width="1" fill="none" fill-rule="evenodd">
        <path d="M3.35169844,22.7606 C4.70969844,20.1016 6.26569844,17.5876 8.03869844,15.1856 C7.42969844,15.1056 6.82069844,15.0256 6.21069844,14.9466 C7.44869844,19.5726 8.68669844,24.1986 9.92469844,28.8246 C10.1376984,29.6196 11.3576984,29.8456 11.7516984,29.0636 C15.5256984,21.5886 19.4436984,14.1896 23.5046984,6.8676 L21.7776984,6.8676 C24.5216984,12.5916 27.2656984,18.3136 30.0096984,24.0366 C30.5656984,25.1966 32.2906984,24.1836 31.7366984,23.0276 C28.9926984,17.3046 26.2486984,11.5816 23.5046984,5.8586 C23.1776984,5.1766 22.1226984,5.2376 21.7776984,5.8586 C17.7156984,13.1806 13.7976984,20.5796 10.0256984,28.0536 C10.6346984,28.1336 11.2446984,28.2136 11.8526984,28.2926 C10.6156984,23.6666 9.37669844,19.0406 8.13969844,14.4146 C7.89869844,13.5146 6.79769844,13.5176 6.31169844,14.1756 C4.53869844,16.5786 2.98369844,19.0926 1.62369844,21.7516 C1.03969844,22.8956 2.76469844,23.9086 3.35169844,22.7606" id="Fill" fill="#FCB736"></path>
        <path d="M2.20419844,21.391 C3.56319844,18.732 5.11819844,16.218 6.89119844,13.815 L5.06319844,13.577 C6.30219844,18.203 7.53919844,22.829 8.77719844,27.455 C8.99019844,28.25 10.2111984,28.475 10.6051984,27.694 C14.3781984,20.219 18.2961984,12.82 22.3571984,5.498 L20.6311984,5.498 C23.3751984,11.221 26.1181984,16.944 28.8621984,22.667 C29.4191984,23.827 31.1431984,22.814 30.5891984,21.658 C27.8461984,15.934 25.1011984,10.212 22.3571984,4.489 C22.0301984,3.807 20.9751984,3.868 20.6311984,4.489 C16.5691984,11.811 12.6511984,19.21 8.87819844,26.684 L10.7061984,26.923 C9.46819844,22.297 8.23019844,17.671 6.99219844,13.045 C6.75219844,12.145 5.65019844,12.147 5.16519844,12.806 C3.39119844,15.208 1.83619844,17.723 0.477198437,20.382 C-0.107801562,21.525 1.61819844,22.538 2.20419844,21.391" id="Fill" fill="#0A142B" fill-rule="nonzero"></path>
    </g>
</svg>